<svg width="29" height="28" viewBox="0 0 29 28" fill="none" xmlns="http://www.w3.org/2000/svg">
<path d="M5.9594 14C5.9594 13.317 6.53382 12.7633 7.24239 12.7633H13.217V7.00392C13.217 6.32089 13.7915 5.76718 14.5 5.76718C15.2086 5.76718 15.783 6.32089 15.783 7.00392V12.7633H21.7578C22.4663 12.7633 23.0407 13.317 23.0407 14C23.0407 14.683 22.4663 15.2367 21.7578 15.2367H15.783V20.996C15.783 21.6791 15.2086 22.2328 14.5 22.2328C13.7915 22.2328 13.217 21.6791 13.217 20.996V15.2367H7.24239C6.53382 15.2367 5.9594 14.683 5.9594 14Z" fill="#BEFF00"/>
<path fill-rule="evenodd" clip-rule="evenodd" d="M6.48859 0.426774C11.7703 -0.142258 17.2297 -0.142258 22.5114 0.426774C25.6357 0.763373 28.1587 3.13568 28.5263 6.1648C29.1579 11.3705 29.1579 16.6295 28.5263 21.8352C28.1587 24.8643 25.6357 27.2366 22.5114 27.5732C17.2297 28.1423 11.7703 28.1423 6.48859 27.5732C3.36429 27.2366 0.841251 24.8643 0.473719 21.8352C-0.157906 16.6295 -0.157906 11.3705 0.473719 6.1648C0.841251 3.13568 3.36429 0.763373 6.48859 0.426774ZM22.2264 2.88495C17.1341 2.33633 11.8659 2.33633 6.7736 2.88495C4.81588 3.09587 3.24883 4.58531 3.02232 6.45214C2.41386 11.467 2.41386 16.533 3.02232 21.5479C3.24883 23.4147 4.81588 24.9041 6.7736 25.115C11.8659 25.6637 17.1341 25.6637 22.2264 25.115C24.1841 24.9041 25.7512 23.4147 25.9777 21.5479C26.5861 16.533 26.5861 11.467 25.9777 6.45214C25.7512 4.58531 24.1841 3.09587 22.2264 2.88495Z" fill="#BEFF00"/>
</svg>
