<svg width="24" height="29" viewBox="0 0 24 29" fill="none" xmlns="http://www.w3.org/2000/svg">
<mask id="path-1-inside-1_615_1928" fill="white">
<path d="M0 10.043C0 9.53951 0.408161 9.13135 0.911654 9.13135H23.0883C23.5918 9.13135 24 9.53951 24 10.043V24.8069C24 27.123 22.1225 29.0005 19.8064 29.0005H4.19361C1.87754 29.0005 0 27.123 0 24.8069V10.043Z"/>
</mask>
<path d="M0 10.043C0 9.53951 0.408161 9.13135 0.911654 9.13135H23.0883C23.5918 9.13135 24 9.53951 24 10.043V24.8069C24 27.123 22.1225 29.0005 19.8064 29.0005H4.19361C1.87754 29.0005 0 27.123 0 24.8069V10.043Z" fill="#BEFF00" stroke="#BEFF00" stroke-width="3.50636" mask="url(#path-1-inside-1_615_1928)"/>
<path d="M6.0305 13.9581C6.0305 9.09884 5.21639 1 12 1" stroke="#BEFF00" stroke-width="1.75318"/>
<path d="M17.9695 13.9581C17.9695 9.09884 18.7836 1 12 1" stroke="#BEFF00" stroke-width="1.75318"/>
</svg>
