<svg width="345" height="275" viewBox="0 0 345 275" fill="none" xmlns="http://www.w3.org/2000/svg">
<g clip-path="url(#clip0_707_1593)">
<path d="M191.59 261.372C183.632 273.225 167.029 273.225 159.07 261.372L82.4047 147.207L11.9595 42.2902C2.54651 28.2691 11.9956 8.82227 28.222 8.82227H322.443C338.67 8.82227 348.119 28.2691 338.706 42.2902L268.256 147.202L191.59 261.367V261.372Z" stroke="#BEFF00" stroke-width="4.62193" stroke-miterlimit="10"/>
<path d="M175.324 210.262C228.86 210.262 272.26 165.601 272.26 110.507C272.26 55.4139 228.86 10.752 175.324 10.752C121.788 10.752 78.3887 55.4139 78.3887 110.507C78.3887 165.601 121.788 210.262 175.324 210.262Z" stroke="#BEFF00" stroke-width="4.62193" stroke-miterlimit="10"/>
<path d="M101.202 34.577C86.1256 48.7795 79.2399 69.3987 77.2026 89.6236C75.026 111.239 78.1774 133.45 86.6414 153.457C95.1414 173.542 109.398 191.023 128.224 202.103C137.229 207.404 147.189 211.243 157.489 213.033C162.631 213.925 167.851 214.371 173.065 214.241C179.533 214.08 185.981 213.105 192.304 211.777C198.411 210.496 204.513 208.997 210.485 207.187C216.097 205.48 221.585 203.255 226.495 199.997C235.996 193.689 243.392 184.674 250.376 175.762C254.141 170.954 257.751 166.016 260.892 160.771C264.018 155.548 266.602 150.029 268.655 144.297C272.699 133.015 274.628 121.069 275.649 109.159C276.67 97.2489 277.248 85.1627 271.394 74.6949C268.614 69.7255 264.714 65.5394 261.372 60.9695C258.314 56.7938 255.647 52.3535 252.939 47.9444C247.425 38.955 241.551 29.9137 232.669 23.938C223.787 17.9623 212.615 15.5451 201.996 13.8022C196.389 12.884 190.777 11.9918 185.186 10.9803C178.811 9.82877 172.4 8.69796 165.927 8.28817C159.454 7.87838 153.445 8.28298 147.39 9.79246C141.438 11.2812 135.754 13.7244 130.22 16.3595C125.005 18.8441 119.775 21.3807 114.757 24.244C109.738 27.1074 105.256 30.2353 101.439 34.328C93.7591 42.5653 90.0043 53.4792 86.6001 64.0144C82.7318 75.9709 78.8325 88.0779 78.0846 100.719C77.3367 113.36 79.7041 125.104 83.3095 136.698C85.1044 142.471 87.2242 148.135 89.4627 153.748C91.7012 159.361 94.017 165.129 96.5598 170.689C98.9531 175.923 101.965 180.815 106.262 184.69C110.558 188.565 115.345 191.345 120.167 194.229C130.261 200.251 140.499 206.17 151.542 210.283C156.947 212.301 162.528 213.816 168.248 214.594C174.293 215.419 180.307 215.356 186.342 214.506C198.292 212.82 209.691 208.063 220.249 202.326C230.147 196.947 239.286 190.23 246.688 181.66C260.351 165.85 268.16 145.744 272.461 125.462C273.586 120.166 274.463 114.823 275.164 109.454C275.933 103.608 276.464 97.7105 276.278 91.8127C276.093 85.9148 275.174 79.6798 272.993 74.0413C270.811 68.408 267.582 63.3556 264.101 58.4589C257.313 48.904 250.314 39.2247 241.504 31.4231C233.334 24.187 223.761 18.8701 213.559 15.1301C203.424 11.4161 192.779 9.33599 182.086 8.10143C170.806 6.80463 159.139 6.01098 147.859 7.65533C141.969 8.51641 136.249 10.2852 130.993 13.1123C125.738 15.9393 121.431 19.3732 117.243 23.2273C108.701 31.0808 100.867 40.0806 94.4503 49.7703C88.034 59.46 83.2166 70.6177 80.1941 82.0451C77.1717 93.4726 75.5315 105.087 75.8358 116.68C76.1195 127.516 78.456 138.492 84.3771 147.689C85.1353 148.862 86.662 149.349 87.905 148.618C89.0655 147.933 89.5916 146.252 88.8283 145.07C83.0567 136.101 81.0349 125.488 80.9627 114.958C80.8853 103.759 82.6235 92.4351 85.6408 81.6665C88.6942 70.7889 93.3568 60.5026 99.7113 51.176C102.93 46.4557 106.514 42.005 110.316 37.7463C114.117 33.4876 117.805 29.6284 121.91 25.961C125.836 22.4596 130.091 19.3214 134.8 16.9612C139.509 14.601 145.11 13.1123 150.526 12.4898C156.282 11.8258 162.09 11.8777 167.866 12.1526C173.055 12.3964 178.239 12.8062 183.397 13.4391C203.46 15.8978 223.978 22.1951 239.183 36.2887C247.477 43.9762 254.234 53.2872 260.681 62.5464C263.843 67.0852 266.85 71.8471 268.634 77.1277C270.455 82.512 271.126 88.1609 271.151 93.8305C271.203 104.511 269.444 115.264 267.139 125.664C264.962 135.499 261.95 145.314 257.813 154.391C253.77 163.272 248.638 171.711 242.211 178.927C234.902 187.138 226.005 193.415 216.345 198.534C206.292 203.862 195.383 208.302 184.01 209.614C178.533 210.247 172.957 210.18 167.516 209.277C162.074 208.374 156.726 206.777 151.568 204.769C141.015 200.666 131.215 194.805 121.524 189.005C117.057 186.334 112.523 183.647 108.784 179.969C104.915 176.172 102.44 171.374 100.279 166.451C95.5747 155.714 91.0719 144.764 87.7142 133.513C84.3616 122.262 82.3604 110.575 83.361 98.805C84.3616 86.9989 88.23 75.6078 91.8714 64.419C95.0899 54.527 98.7003 44.1992 106.272 36.7608C110.042 33.0571 114.53 30.2301 119.146 27.7195C124.051 25.048 129.09 22.5686 134.15 20.2032C139.21 17.8378 144.842 15.597 150.531 14.378C156.22 13.159 162.332 13.1227 168.233 13.6517C174.247 14.1912 180.183 15.3324 186.115 16.401C191.592 17.3917 197.096 18.2009 202.578 19.1346C212.595 20.8412 222.761 23.1392 231.132 29.1719C239.503 35.2046 244.351 43.8517 249.489 52.2239C252.145 56.5604 254.832 60.8865 257.911 64.9377C261.207 69.269 264.89 73.3721 267.422 78.2325C269.955 83.093 270.857 88.581 271.064 93.9965C271.27 99.4119 270.847 105.356 270.311 110.995C269.233 122.433 267.128 133.865 263.038 144.629C258.948 155.392 252.609 164.703 245.579 173.542C238.858 181.998 231.735 190.722 222.446 196.439C217.649 199.395 212.378 201.278 206.983 202.809C201.181 204.453 195.301 205.916 189.385 207.093C178.631 209.236 167.603 209.796 156.973 207.685C137.162 203.753 119.337 192.367 106.509 176.743C93.6818 161.119 85.3313 140.038 82.7266 119.403C81.4423 109.231 81.3443 98.8725 82.4481 88.6796C83.459 79.3322 85.7749 69.2898 89.5143 60.6375C93.2537 51.9852 98.1587 44.5364 104.838 38.2495C107.267 35.9619 103.611 32.2998 101.192 34.5821L101.202 34.577Z" fill="#BEFF00"/>
<path d="M133.47 115.002C129.178 124.219 129.71 134.806 132.376 144.403C133.784 149.465 135.76 154.347 137.849 159.155C139.938 163.964 142.279 169.057 144.626 173.949C147.272 179.463 150.031 184.92 152.899 190.315C153.683 191.788 155.906 190.481 155.127 189.007C150.135 179.608 145.472 170.033 141.155 160.296C137.142 151.255 133.258 141.793 132.897 131.761C132.706 126.491 133.459 121.112 135.693 116.309C135.987 115.676 135.868 114.908 135.229 114.535C134.672 114.208 133.759 114.364 133.465 115.002H133.47Z" fill="#BEFF00"/>
<path d="M169.633 204.662C164.954 199.578 160.039 194.713 155.387 189.603C155.335 189.551 155.273 189.448 155.211 189.406C155.118 189.354 155.541 189.603 155.289 189.505C155.412 189.551 155.392 189.665 155.335 189.562C155.294 189.479 155.232 189.401 155.18 189.318C155.041 189.09 154.912 188.851 154.783 188.612C154.365 187.85 153.968 187.072 153.571 186.299C152.571 184.323 151.601 182.326 150.698 180.303C150.574 180.022 150.446 179.737 150.327 179.457C150.27 179.333 150.219 179.203 150.162 179.078C150.141 179.027 150.115 178.975 150.095 178.918C150.017 178.731 150.172 179.099 150.095 178.918C149.909 178.471 149.734 178.031 149.569 177.579C149.45 177.258 149.337 176.936 149.254 176.604C149.192 176.35 149.218 176.215 149.223 176.547C149.223 176.506 149.218 176.469 149.223 176.428C149.197 176.739 149.13 176.92 148.893 177.201H147.067C147.145 177.263 147.217 177.335 147.284 177.413C147.33 177.465 147.366 177.527 147.418 177.574C147.526 177.683 147.222 177.294 147.423 177.59C147.691 177.979 147.954 178.363 148.202 178.762C148.903 179.872 149.564 181.013 150.213 182.154C151.658 184.681 153.045 187.233 154.422 189.795C154.835 190.563 155.247 191.336 155.66 192.103C156.346 193.369 158.517 192.508 158.017 191.102C156.857 187.86 155.129 184.893 153.556 181.848C152.081 178.99 150.74 175.971 150.564 172.714C150.476 171.054 147.898 171.043 147.985 172.714C148.372 179.831 153.21 185.319 155.526 191.792L157.883 190.791C155.5 186.387 153.205 181.916 150.559 177.667C150.095 176.921 149.589 175.914 148.883 175.364C148.367 174.96 147.557 174.783 147.057 175.364C146.01 176.589 147.217 178.695 147.727 179.919C148.63 182.071 149.636 184.188 150.667 186.278C151.41 187.777 152.117 189.359 153.024 190.765C153.674 191.771 154.644 192.627 155.459 193.499C156.733 194.863 158.022 196.212 159.312 197.56C162.154 200.527 165.016 203.474 167.802 206.498C168.931 207.727 170.752 205.886 169.627 204.662H169.633Z" fill="#BEFF00"/>
<path d="M173.717 212.622C98.2373 116.679 142.166 42.3723 171.437 9.76025C146.009 46.688 137.529 142.377 173.717 212.622Z" fill="#BEFF00" stroke="#BEFF00" stroke-width="2.6411" stroke-linecap="round" stroke-linejoin="round"/>
<path d="M167.702 202.537C161.822 190.726 155.844 178.956 150.093 167.083C144.745 156.044 140.108 144.752 137.534 132.707C135.105 121.347 134.326 109.639 135.141 98.0511C135.956 86.4629 138.426 74.885 142.475 63.9452C146.802 52.2584 153.141 41.4949 159.656 30.939C160.471 29.6162 161.296 28.2935 162.116 26.9707L159.888 25.6636C150.661 42.7243 146.41 62.0104 145.291 81.2912C144.079 102.211 146.699 123.074 149.278 143.792C150.764 155.702 152.228 167.622 152.971 179.604L155.504 179.262C150.985 161.589 142.578 145.234 137.807 127.644C135.43 118.878 133.934 109.79 134.419 100.681C134.651 96.2875 135.378 91.9406 136.636 87.7234C137.818 83.7551 139.406 79.9322 141.119 76.1714C145.008 67.6281 149.526 59.2404 151.512 49.976C151.862 48.3472 149.536 47.6936 149.025 49.2861C144.291 63.9971 143.775 79.6728 144.899 94.9855C146.024 110.298 149.036 126.804 150.661 142.765C151.584 151.822 152.063 160.941 151.558 170.044L154.09 169.702L146.73 149.882C144.347 143.465 141.758 137.085 139.772 130.528C137.885 124.288 136.997 118.006 137.699 111.502C138.359 105.381 140.077 99.4309 141.552 93.476C143.218 86.7482 144.647 79.8492 144.131 72.8776C144.007 71.2332 141.49 71.1917 141.552 72.8776C142.006 84.8496 142.656 96.8165 143.434 108.773C144.213 120.73 145.106 132.562 146.049 144.451C146.586 151.184 147.133 157.917 147.679 164.65L150.212 164.307C145.626 148.434 142.568 132.121 141.165 115.651C140.773 111.03 140.505 106.392 140.366 101.755L137.833 102.097C138.493 106.771 139.061 111.47 139.86 116.123C140.582 120.33 141.696 124.516 143.981 128.158C144.76 129.403 146.689 128.604 146.338 127.157C143.656 116.077 142.129 104.753 141.779 93.3515C141.743 92.1844 140.417 91.702 139.576 92.4333C136.162 95.4212 134.068 99.5554 133.48 104.042L136.012 103.7C134.295 95.6183 136.141 87.049 140.886 80.3264L138.483 79.6728C138.782 85.7367 138.23 91.7901 136.801 97.6932L139.334 98.0355L141.66 77.489H139.081C139.478 91.4218 139.886 105.355 140.273 119.288C140.376 122.96 140.433 126.659 139.339 130.207H141.825C140.17 122.135 139.819 113.846 140.721 105.661C140.881 104.198 138.535 103.918 138.189 105.318C137.637 107.554 136.642 109.639 135.182 111.429L137.384 112.347L139.123 87.8894C139.241 86.2087 136.714 86.2554 136.544 87.8894C135.553 97.3456 135.584 106.885 136.626 116.331C136.807 117.949 139.205 118.043 139.205 116.331C139.205 109.956 139.623 103.581 140.505 97.2678C140.603 96.5676 140.335 95.8829 139.602 95.6702C138.999 95.4938 138.112 95.8829 138.014 96.5779C137.095 103.124 136.616 109.717 136.621 116.331H139.2C138.158 106.88 138.132 97.3405 139.117 87.8894H136.538L134.8 112.347C134.723 113.421 136.301 114.121 137.003 113.265C138.751 111.133 140.01 108.7 140.675 106.013L138.143 105.671C137.209 114.09 137.632 122.613 139.334 130.907C139.602 132.219 141.464 132.058 141.82 130.907C142.779 127.784 142.939 124.501 142.893 121.254C142.841 117.742 142.702 114.225 142.604 110.713L141.995 89.4507L141.655 77.4994C141.609 75.7928 139.262 75.8758 139.076 77.4994L136.75 98.0459C136.585 99.5087 138.947 99.7888 139.282 98.3883C140.758 92.2725 141.366 85.9649 141.052 79.678C140.984 78.3397 139.386 77.9818 138.648 79.0244C133.5 86.3176 131.659 95.6702 133.511 104.395C133.645 105.023 134.326 105.407 134.924 105.324C135.61 105.23 135.956 104.701 136.043 104.048C136.544 100.245 138.529 96.775 141.387 94.2748L139.184 93.3567C139.54 104.976 141.103 116.554 143.837 127.852L146.194 126.851C143.971 123.302 142.97 119.225 142.284 115.133C141.521 110.578 140.954 105.982 140.309 101.407C140.102 99.9548 137.73 100.313 137.776 101.75C138.287 118.385 140.412 134.974 144.136 151.189C145.198 155.821 146.395 160.427 147.715 164.992C148.107 166.346 150.372 166.154 150.248 164.65C149.273 152.704 148.303 140.763 147.411 128.811C146.524 116.922 145.714 105.023 145.059 93.1181C144.688 86.3747 144.373 79.6261 144.115 72.8776H141.536C142.46 85.3943 137.085 97.133 135.378 109.333C134.955 112.373 134.723 115.433 134.878 118.504C135.048 121.881 135.651 125.227 136.507 128.49C138.241 135.119 140.871 141.51 143.254 147.926L151.594 170.387C152.1 171.741 154.044 171.554 154.127 170.044C155.024 153.86 152.786 137.749 150.578 121.757C148.37 105.764 146.359 90.8512 147.112 75.2689C147.53 66.684 148.86 58.1614 151.496 49.976L149.01 49.2861C147.231 57.5805 143.388 65.159 139.834 72.7842C138.06 76.5968 136.342 80.4509 134.97 84.4347C133.516 88.6467 132.557 92.9936 132.082 97.4286C130.132 115.791 136.451 133.692 142.903 150.546C146.612 160.225 150.434 169.884 153.002 179.947C153.358 181.337 155.627 181.088 155.535 179.604C154.219 158.399 150.624 137.427 148.731 116.279C146.968 96.5416 146.828 76.5138 151.12 57.0721C153.43 46.5991 156.999 36.4115 162.101 26.9759C162.895 25.5079 160.754 24.2475 159.872 25.6687C153.172 36.4633 146.472 47.315 141.603 59.0951C137.075 70.0505 134.212 81.6543 132.954 93.4449C131.695 105.235 132.108 117.182 134.15 128.858C136.275 141.022 140.427 152.548 145.621 163.706C151.197 175.688 157.293 187.437 163.184 199.269L165.463 203.849C166.206 205.343 168.429 204.031 167.692 202.542L167.702 202.537Z" fill="#BEFF00"/>
<path d="M152.597 177.579C147.176 164.082 138.614 151.871 134.797 137.725C132.718 130.022 132.6 122.096 133.229 114.181C133.559 110.031 134.142 105.907 134.436 101.752C134.73 97.5972 134.415 93.4318 134.224 89.2458C134.121 87.0308 134.075 84.8003 134.343 82.5906C134.611 80.3808 135.143 78.3371 135.808 76.2829C137.149 72.1539 139.078 68.2531 141.053 64.399C141.812 62.9155 139.589 61.6031 138.825 63.0918C135.21 70.1516 131.671 77.5797 131.563 85.6821C131.506 89.8475 132.058 93.9921 132.007 98.1574C131.955 102.323 131.357 106.675 130.934 110.923C130.124 119.083 129.851 127.351 131.573 135.412C133.11 142.581 136.05 149.36 139.269 155.912C142.92 163.34 147.011 170.571 150.1 178.263C150.363 178.912 150.961 179.368 151.689 179.171C152.303 179 152.849 178.227 152.591 177.574L152.597 177.579Z" fill="#BEFF00"/>
<path d="M159.203 185.768C159.26 179.776 159.188 173.785 159.053 167.799C158.888 160.599 158.625 153.399 158.187 146.21C157.795 139.783 157.3 133.346 156.335 126.976C155.066 118.593 152.575 110.439 150.507 102.233C148.253 93.3159 146.36 84.1657 146.953 74.9169C147.025 73.7653 147.144 72.619 147.294 71.4726L144.761 71.8149C147.309 84.9593 149.893 98.0933 152.4 111.248C154.205 120.725 155.51 130.389 155.624 140.053C155.68 145.069 155.479 150.199 154.05 155.023L156.583 155.365C156.738 150.329 156.66 145.281 156.392 140.25C156.098 134.751 155.634 129.175 154.38 123.806C153.751 121.119 152.715 118.64 151.626 116.109C150.914 114.449 150.275 112.758 149.909 110.984C149.542 109.21 149.419 107.394 149.346 105.584C149.068 98.249 148.97 90.8779 149.383 83.5432C149.842 75.3682 151.074 67.2658 153.483 59.4331C153.973 57.8354 151.487 57.1507 150.997 58.7432C146.628 72.9198 146.288 87.7812 146.675 102.497C146.773 106.279 146.804 110.143 147.975 113.774C148.939 116.762 150.502 119.522 151.379 122.541C152.833 127.526 153.318 132.811 153.669 137.973C154.061 143.751 154.179 149.561 153.999 155.355C153.952 156.844 156.124 157.082 156.531 155.697C157.826 151.335 158.151 146.682 158.202 142.148C158.259 136.956 157.888 131.758 157.315 126.602C156.088 115.528 153.746 104.634 151.626 93.7102C150.167 86.1783 148.707 78.6465 147.247 71.1147C147.129 70.487 146.422 70.098 145.834 70.1862C145.148 70.2899 144.802 70.7983 144.715 71.4622C143.508 80.7162 144.962 90.0324 147.077 99.0426C149.192 108.053 151.915 116.581 153.504 125.534C154.546 131.395 155.025 137.475 155.438 143.554C155.928 150.749 156.222 157.954 156.413 165.164C156.578 171.42 156.671 177.686 156.64 183.947C156.64 184.554 156.634 185.155 156.629 185.762C156.614 187.433 159.193 187.433 159.208 185.762L159.203 185.768Z" fill="#BEFF00"/>
<path d="M141.329 78.1573C142.061 78.1573 142.655 77.5628 142.655 76.8294C142.655 76.096 142.061 75.5015 141.329 75.5015C140.597 75.5015 140.003 76.096 140.003 76.8294C140.003 77.5628 140.597 78.1573 141.329 78.1573Z" fill="#BEFF00"/>
<path d="M137.905 87.4353C138.618 87.4353 139.195 86.9593 139.195 86.372C139.195 85.7847 138.618 85.3086 137.905 85.3086C137.193 85.3086 136.615 85.7847 136.615 86.372C136.615 86.9593 137.193 87.4353 137.905 87.4353Z" fill="#BEFF00"/>
<path d="M135.948 99.5841C136.598 99.5841 137.124 97.7006 137.124 95.3772C137.124 93.0539 136.598 91.1704 135.948 91.1704C135.298 91.1704 134.771 93.0539 134.771 95.3772C134.771 97.7006 135.298 99.5841 135.948 99.5841Z" fill="#BEFF00"/>
<path d="M135.5 108.998C136.187 108.998 136.744 107.835 136.744 106.4C136.744 104.964 136.187 103.801 135.5 103.801C134.814 103.801 134.257 104.964 134.257 106.4C134.257 107.835 134.814 108.998 135.5 108.998Z" fill="#BEFF00"/>
<path d="M144.092 113.498C145.819 113.498 147.219 107.662 147.219 100.463C147.219 93.2634 145.819 87.4272 144.092 87.4272C142.365 87.4272 140.965 93.2634 140.965 100.463C140.965 107.662 142.365 113.498 144.092 113.498Z" fill="#BEFF00"/>
<path d="M145.997 148.668C147.74 148.313 148.118 142.877 146.841 136.525C145.564 130.173 143.116 125.312 141.373 125.666C139.63 126.02 139.252 131.457 140.529 137.809C141.806 144.16 144.254 149.022 145.997 148.668Z" fill="#BEFF00"/>
<path d="M153.774 182.794C154.609 182.794 155.285 182.209 155.285 181.487C155.285 180.765 154.609 180.18 153.774 180.18C152.939 180.18 152.262 180.765 152.262 181.487C152.262 182.209 152.939 182.794 153.774 182.794Z" fill="#BEFF00"/>
<path d="M130.687 135.953C130.981 139.112 132.074 142.162 132.997 145.176C133.92 148.19 134.833 151.001 135.958 153.844C137.082 156.687 138.48 159.617 140.048 162.361C141.616 165.105 142.921 167.632 144.236 170.339C145.665 173.281 147.135 176.206 149.105 178.826C149.523 179.386 150.219 179.676 150.869 179.293C151.416 178.971 151.756 178.079 151.333 177.518C147.862 172.897 145.871 167.362 143.029 162.361C141.544 159.757 140.11 157.148 138.949 154.378C137.789 151.608 136.799 148.667 135.886 145.752C135.396 144.18 134.921 142.598 134.452 141.016C133.957 139.356 133.436 137.681 133.276 135.948C133.214 135.253 132.729 134.651 131.986 134.651C131.336 134.651 130.63 135.248 130.697 135.948L130.687 135.953Z" fill="#BEFF00"/>
<path d="M157.163 160.628L155.698 145.216C155.208 140.091 154.748 134.966 154.021 129.873C153.618 127.056 153.128 124.25 152.53 121.464C152.179 119.835 149.692 120.525 150.043 122.154C152.158 131.968 152.813 142.042 153.768 152.022L154.589 160.628C154.656 161.323 155.135 161.924 155.879 161.924C156.524 161.924 157.236 161.328 157.169 160.628H157.163Z" fill="#BEFF00"/>
<path d="M152.012 116.836C151.424 113.957 151.579 111.104 151.749 108.194C151.92 105.284 151.961 102.441 150.893 99.77C150.635 99.1216 150.031 98.6651 149.303 98.8622C148.689 99.0334 148.142 99.8011 148.4 100.46C149.448 103.085 149.309 105.886 149.138 108.656C148.953 111.654 148.916 114.569 149.52 117.526C149.659 118.211 150.464 118.61 151.109 118.434C151.816 118.236 152.152 117.526 152.012 116.836Z" fill="#BEFF00"/>
<path d="M156.403 192.581C156.894 192.98 157.399 193.359 157.936 193.696C158.086 193.79 158.246 193.841 158.416 193.852C158.586 193.888 158.756 193.883 158.932 193.831C159.102 193.79 159.247 193.712 159.37 193.598C159.51 193.504 159.623 193.385 159.701 193.235L159.83 192.923C159.892 192.695 159.892 192.462 159.83 192.233L159.701 191.922C159.587 191.725 159.432 191.575 159.236 191.455C158.87 191.222 158.514 190.973 158.173 190.708L158.437 190.911C158.369 190.859 158.297 190.802 158.23 190.745C158.111 190.62 157.977 190.527 157.817 190.475C157.663 190.392 157.497 190.356 157.322 190.361C157.147 190.356 156.976 190.392 156.827 190.475C156.667 190.527 156.527 190.615 156.414 190.745L156.213 191.009C156.094 191.212 156.037 191.429 156.037 191.663L156.084 192.005C156.145 192.223 156.254 192.415 156.414 192.576L156.403 192.581Z" fill="#BEFF00"/>
<path d="M45.5435 6.70706C36.3678 6.40102 27.094 7.869 18.5166 11.1733C14.8546 12.5842 11.2029 14.4049 9.27385 18.0411C7.34483 21.6774 7.23136 25.6456 7.70588 29.4841C9.58332 44.7708 21.3637 55.6795 29.9205 67.5375C34.9545 74.5143 38.761 82.2381 42.5932 89.9255C46.4667 97.7011 50.5517 105.269 55.6992 112.282C60.8467 119.295 66.5099 125.748 71.7554 132.606C77.0009 139.463 81.5965 147.078 85.2276 155.155C88.8587 163.231 91.9379 171.671 96.0538 179.576C100.17 187.481 105.369 195.039 110.728 202.286C122.09 217.661 133.783 232.797 145.321 248.037L154.28 259.874C156.663 263.018 158.958 266.301 161.764 269.087C164.57 271.872 167.763 274.025 171.549 274.73C175.185 275.41 178.738 274.767 182.055 273.185C189.008 269.875 193.804 263.132 198.111 256.99C203.449 249.37 208.783 241.75 214.038 234.073C224.54 218.729 234.732 203.152 243.974 187.004C253.021 171.199 260.897 154.641 271.563 139.826C282.188 125.074 295.057 112.122 305.77 97.4262C316.4 82.8398 325.411 67.1485 334.081 51.3275C336.289 47.297 338.496 43.2613 340.662 39.2101C342.648 35.4909 344.448 31.6576 344.912 27.4144C345.691 20.2924 341.916 13.4453 336.608 8.96869C322.125 -3.24201 302.943 2.78035 286.315 5.80449C267.747 9.18136 248.828 10.4315 229.971 10.1669C210.913 9.8972 192.035 7.70301 173.106 5.69037C154.177 3.67773 134.701 2.35499 115.396 4.06677C96.0899 5.77855 77.6663 8.92719 58.5772 8.57965C48.9631 8.40328 39.3748 7.67189 29.7658 7.34509C22.6687 7.10648 14.1944 6.24022 7.80904 10.1202C4.75562 11.9773 2.71829 14.9444 2.3263 18.5339C1.88273 22.6214 3.44038 26.9579 4.66278 30.7965C7.11789 38.5047 10.4859 45.912 14.4059 52.9718C22.3076 67.2055 32.3808 80.0491 42.2012 92.96C52.8469 106.95 62.5591 121.459 71.8895 136.361C81.4676 151.664 91.2828 166.681 102.274 181.003C112.894 194.842 123.968 208.412 132.984 223.403C137.461 230.852 140.947 238.762 144.996 246.434C148.808 253.67 153.563 260.481 160.397 265.124C167.231 269.766 174.917 271.104 182.509 268.744C190.101 266.384 196.646 260.647 201.505 254.121C206.689 247.155 210.469 239.198 214.75 231.666C219.031 224.124 223.498 216.691 228.083 209.335C237.171 194.769 246.749 180.525 256.456 166.369C275.958 137.928 296.016 109.824 313.651 80.1476C322.373 65.473 330.857 50.3938 337.65 34.7024C339.321 30.8483 340.492 26.6519 339.089 22.5125C337.991 19.2653 335.68 16.7651 332.946 14.8043C326.69 10.3226 318.355 8.8442 310.984 7.4229C274.478 0.389041 237.3 6.2454 200.51 6.22984C181.653 6.22465 163.079 3.73479 144.362 1.75846C134.938 0.772895 125.495 0 116.03 0C106.565 0 97.0596 0.829954 87.6208 1.77921C78.182 2.72847 68.2945 3.8541 58.5927 4.32095C53.9713 4.544 49.3396 4.62181 44.7131 4.46619C40.0865 4.31057 35.4909 3.91634 30.8747 3.91116C22.5088 3.90597 14.0809 5.34801 7.55115 10.9658C2.0323 15.7173 -1.57816 23.3476 0.686116 30.6409C2.06841 35.0811 5.09088 38.9352 7.59241 42.7789L15.3755 54.7251L31.3131 79.188L63.5597 128.684L94.326 175.909C96.1363 178.689 100.608 176.095 98.7771 173.289C78.084 141.523 57.3858 109.756 36.6927 77.9897L21.3122 54.3775L13.529 42.4314C11.0842 38.681 8.18555 34.9618 6.2978 30.8847C3.22891 24.2606 7.13852 17.2994 12.7038 13.4764C19.641 8.7197 28.4763 8.88051 36.5225 9.25917C45.4506 9.67934 54.2808 9.83495 63.209 9.23842C72.1371 8.64189 81.6842 7.53183 90.9166 6.63963C100.144 5.74743 109.392 5.06791 118.671 5.20277C127.95 5.33764 137.131 6.16241 146.317 7.16354C164.369 9.12949 182.303 11.4222 200.494 11.4274C218.686 11.4326 236.501 10.058 254.507 9.44591C272.512 8.83382 289.977 8.92719 307.415 12.0291C311.696 12.7917 315.946 13.7254 320.14 14.8614C323.296 15.7173 326.391 16.791 329.186 18.5287C331.559 20.0071 333.787 22.0923 334.406 24.9349C335.272 28.9187 332.781 33.0529 331.146 36.518C316.962 66.6297 299.101 94.7859 280.486 122.283C261.8 149.89 242.288 176.941 224.571 205.196C220.125 212.287 215.792 219.455 211.619 226.712C207.447 233.98 203.738 241.584 199.101 248.566C194.82 255.014 189.137 261.062 181.637 263.578C174.519 265.964 167.371 264.154 161.537 259.594C155.26 254.687 151.278 247.617 147.787 240.578C144.016 232.984 140.349 225.431 135.862 218.226C126.928 203.894 116.231 190.806 105.988 177.423C95.3885 163.584 85.9239 149.06 76.676 134.281C67.5363 119.679 58.0924 105.404 47.6788 91.6891C38.2504 79.271 28.5434 66.9773 20.6468 53.4905C16.7423 46.8198 13.2866 39.8689 10.6974 32.5757C9.39248 28.9031 7.88124 24.9038 7.4583 21.0082C7.10242 17.7195 8.56723 15.3541 11.502 13.9951C14.1738 12.7605 17.2633 12.4389 20.1723 12.3715C24.7008 12.2729 29.25 12.4804 33.7786 12.6775C43.0471 13.0821 52.3054 13.7409 61.5842 13.7876C80.0801 13.8862 98.3181 10.6753 116.706 9.12431C153.764 6.00679 190.354 14.4879 227.33 15.2971C245.774 15.7017 264.26 14.6279 282.488 11.6868C291.498 10.2344 300.411 7.73413 309.514 6.92493C317.241 6.23503 325.014 6.98199 331.523 11.5312C336.701 15.1467 340.822 21.3091 339.667 27.8864C338.945 32.0051 336.701 35.6725 334.741 39.2879C332.642 43.168 330.538 47.0428 328.407 50.9073C319.964 66.2511 311.129 81.434 300.757 95.5536C290.364 109.699 278 122.242 267.664 136.429C257.235 150.74 249.493 166.733 240.802 182.113C231.967 197.747 222.219 212.842 212.14 227.687C207.034 235.204 201.845 242.663 196.631 250.107C192.355 256.217 188.167 263.241 181.776 267.38C179.141 269.087 176.093 270.228 172.915 269.714C169.423 269.149 166.649 266.804 164.328 264.273C161.625 261.327 159.314 258.007 156.9 254.822L148.55 243.794C137.29 228.922 125.866 214.164 114.802 199.147C109.583 192.062 104.574 184.774 100.505 176.941C96.5386 169.305 93.542 161.224 90.0604 153.365C86.6305 145.631 82.5094 138.41 77.4651 131.631C72.4878 124.939 67.0051 118.647 61.9401 112.023C56.8752 105.399 52.5117 98.1109 48.6897 90.548C44.8678 82.985 41.2677 75.2146 36.5947 68.0977C32.5458 61.9405 27.6666 56.4109 23.236 50.539C19.0634 45.0094 15.0867 39.0441 13.4207 32.2178C12.6574 29.0847 12.2344 25.5626 13.0803 22.4088C14.0345 18.8244 16.959 17.2682 20.1981 16.0389C28.3113 12.9628 36.899 11.583 45.559 11.8683C48.8806 11.9773 48.8754 6.79006 45.559 6.68113L45.5435 6.70706Z" fill="#BEFF00"/>
<path d="M122.455 195.92C128.464 208.79 134.411 221.69 140.482 234.534C143.231 240.349 146.223 246.055 150.4 250.972C154.336 255.604 159.272 259.381 164.538 262.363C167.251 263.899 170.077 265.247 172.976 266.394C176.035 267.607 179.258 268.474 182.554 268.629C185.85 268.785 189.146 268.064 191.957 266.368C194.35 264.926 196.315 262.908 198.017 260.708C199.719 258.509 201.334 255.978 203 253.612C203.417 253.021 203.84 252.435 204.274 251.859C204.501 251.553 204.733 251.252 204.965 250.951C204.619 251.403 205.083 250.801 205.119 250.754C205.259 250.573 205.403 250.391 205.542 250.215C206.528 248.954 207.533 247.709 208.524 246.449C210.535 243.891 212.516 241.293 214.171 238.481C215.652 235.96 216.828 233.263 217.823 230.514C219.706 225.29 220.84 219.833 222.223 214.464C222.898 211.84 223.636 209.231 224.559 206.684C224.781 206.072 225.013 205.465 225.261 204.858C225.307 204.744 225.529 204.126 225.302 204.759C225.343 204.64 225.405 204.521 225.457 204.401C225.611 204.043 225.771 203.691 225.936 203.338C226.514 202.109 227.154 200.91 227.87 199.754C228.195 199.23 228.536 198.716 228.892 198.213C229.077 197.948 229.273 197.684 229.469 197.424C229.712 197.098 229.077 197.902 229.485 197.404C229.609 197.253 229.732 197.098 229.856 196.942C230.712 195.899 230.95 194.281 229.856 193.275C228.907 192.398 227.128 192.159 226.21 193.275C218.999 202.041 217.457 213.386 214.476 223.988C214.115 225.269 213.728 226.545 213.305 227.811C213.093 228.439 212.872 229.066 212.645 229.689C212.531 230 212.413 230.306 212.289 230.617C212.242 230.742 212.191 230.861 212.144 230.986C212.093 231.11 212.046 231.23 211.995 231.354C212.113 231.069 212.139 231.017 212.062 231.193C210.912 233.849 209.519 236.354 207.879 238.735C207.451 239.363 207.007 239.975 206.553 240.587C206.326 240.893 206.099 241.194 205.867 241.5C205.774 241.619 205.682 241.744 205.589 241.863C205.919 241.433 205.429 242.066 205.362 242.154C204.402 243.388 203.423 244.602 202.453 245.826C200.56 248.223 198.739 250.661 197.032 253.197C196.258 254.349 195.485 255.5 194.67 256.621C194.494 256.86 194.319 257.093 194.138 257.332C193.896 257.658 194.525 256.849 194.123 257.352C194.02 257.477 193.922 257.606 193.819 257.736C193.391 258.265 192.947 258.779 192.483 259.272C192.044 259.738 191.591 260.185 191.111 260.605C190.874 260.812 190.641 261.035 190.384 261.212C190.445 261.165 190.832 260.885 190.451 261.149C190.296 261.258 190.141 261.372 189.986 261.476C189.46 261.834 188.908 262.156 188.341 262.436C188.197 262.508 188.047 262.571 187.903 262.638C187.547 262.804 188.475 262.436 187.81 262.669C187.392 262.814 186.974 262.96 186.546 263.074C186.226 263.157 185.907 263.229 185.582 263.292C185.401 263.328 185.221 263.354 185.04 263.385C185.602 263.297 185.107 263.369 184.963 263.385C184.194 263.458 183.421 263.478 182.652 263.442C182.281 263.427 181.909 263.401 181.543 263.364C181.394 263.349 181.249 263.333 181.1 263.318C181.729 263.385 180.981 263.297 180.893 263.286C180.145 263.167 179.408 263.006 178.675 262.82C177.123 262.425 175.606 261.901 174.121 261.305C173.982 261.248 173.843 261.191 173.698 261.134C173.022 260.859 173.992 261.269 173.585 261.087C173.285 260.957 172.986 260.828 172.687 260.693C171.97 260.371 171.258 260.034 170.552 259.687C167.947 258.41 165.42 256.963 163.021 255.329C162.459 254.945 161.907 254.556 161.361 254.152C161.072 253.939 160.788 253.721 160.504 253.509C160.984 253.877 160.417 253.436 160.35 253.384C160.185 253.249 160.014 253.114 159.849 252.979C158.746 252.077 157.683 251.122 156.662 250.121C155.641 249.12 154.625 248.015 153.691 246.89C153.474 246.63 153.268 246.366 153.057 246.101C152.577 245.51 153.356 246.506 152.897 245.899C152.804 245.774 152.711 245.655 152.623 245.531C152.123 244.851 151.643 244.161 151.174 243.461C149.456 240.867 147.971 238.128 146.584 235.348C143.566 229.295 140.807 223.106 137.949 216.98L129.088 197.99L126.901 193.301C126.329 192.071 124.472 191.656 123.373 192.372C122.115 193.192 121.831 194.603 122.45 195.92H122.455Z" fill="#BEFF00"/>
<path d="M241.211 187.741C248.639 184.577 254.008 177.968 257.696 170.945C262.028 162.697 264.628 153.666 268.651 145.268C272.705 136.802 277.744 129.016 283.227 121.433C285.945 117.672 288.612 113.875 290.896 109.824C293.181 105.772 295.131 101.68 297.4 97.6856C299.67 93.6915 302.373 89.9515 305.369 86.419C308.304 82.9591 311.368 79.603 314.143 76.0083C319.45 69.13 323.912 61.6138 327.388 53.641C329.126 49.652 330.642 45.5645 331.886 41.3888C333.144 37.1664 334.459 32.6847 334.733 28.2704C335.279 19.504 327.713 14.0574 320.373 11.3289C312.42 8.3774 303.76 8.25291 295.394 8.60564C287.028 8.95837 278.079 9.88688 269.445 9.05174C267.387 8.85462 265.345 8.53302 263.323 8.0921C261.703 7.73937 261.012 10.2396 262.637 10.5923C270.92 12.4079 279.431 12.0707 287.838 11.5987C296.245 11.1266 304.523 10.4523 312.714 11.941C316.665 12.662 320.58 13.881 324.097 15.8522C327.197 17.5899 330.281 20.1212 331.555 23.5656C333.061 27.6375 331.628 32.2853 330.612 36.3157C329.575 40.4292 328.291 44.4804 326.764 48.4382C323.716 56.3384 319.677 63.8598 314.813 70.7796C309.728 78.0209 303.239 84.1263 298.241 91.4247C295.683 95.1698 293.609 99.2159 291.51 103.231C289.411 107.246 287.188 111.25 284.614 115.026C282.025 118.829 279.224 122.48 276.63 126.278C274.036 130.075 271.699 133.903 269.533 137.892C267.361 141.886 265.401 145.989 263.643 150.185C261.884 154.382 260.347 158.672 258.603 162.878C255.535 170.291 251.522 177.87 244.899 182.678C243.347 183.804 241.681 184.748 239.917 185.5C239.272 185.775 239.143 186.724 239.453 187.274C239.834 187.948 240.577 188.011 241.217 187.741H241.211Z" fill="#BEFF00"/>
<path d="M26.2849 56.5366C24.7582 54.0364 23.3759 51.4479 22.1535 48.7817C21.8646 48.1541 21.5861 47.5212 21.3179 46.8884C21.4727 47.2463 21.3024 46.8469 21.2767 46.7898C21.2096 46.629 21.1477 46.4682 21.0807 46.3126C20.9208 45.9132 20.7609 45.5138 20.6061 45.1092C20.08 43.7397 19.5952 42.3548 19.1516 40.9594C18.2748 38.205 17.563 35.3987 17.0112 32.5613C16.8822 31.8818 16.7584 31.2022 16.645 30.5227C16.5882 30.1804 16.5366 29.8432 16.4851 29.5008C16.4593 29.3297 16.4335 29.1585 16.4077 28.9873C16.3871 28.8317 16.3252 28.4063 16.3767 28.7798C16.1859 27.3274 16.0415 25.8646 15.9383 24.4018C15.8352 22.939 15.763 21.5177 15.8197 20.0705C15.8403 19.5621 15.8249 19.8941 15.8094 20.0186C15.8352 19.8578 15.8661 19.6918 15.8971 19.531C15.9177 19.4325 16.2065 18.5558 16.0209 18.9812C16.1343 18.7218 16.2891 18.478 16.4335 18.2394C16.6759 17.84 16.4799 18.1824 16.4077 18.2602C16.547 18.1045 16.6862 17.9437 16.8358 17.7933C16.9544 17.674 17.5579 17.1864 17.1195 17.508C17.3516 17.3368 17.5888 17.176 17.8312 17.0204C18.3934 16.6729 18.9814 16.3876 19.5746 16.1075C19.6674 16.0608 20.0285 15.9052 19.5591 16.1075C19.6932 16.0504 19.8273 15.9985 19.9563 15.9415C20.2812 15.8118 20.6113 15.6821 20.9362 15.5576C21.6738 15.2775 22.4165 15.0078 23.1644 14.7588C25.9393 13.8251 28.7813 13.0989 31.6541 12.549C32.3401 12.4194 33.0313 12.2949 33.7173 12.1859C34.0628 12.1289 34.4084 12.077 34.754 12.0251C34.9293 11.9992 35.0996 11.9784 35.2749 11.9525C35.4606 11.9266 35.4503 11.9266 35.2388 11.9525C35.3678 11.9369 35.5019 11.9162 35.6308 11.9006C37.0647 11.7191 38.5089 11.5738 39.953 11.4649C52.2131 10.5364 64.4474 12.0874 76.5992 13.5605C82.9949 14.3334 89.406 15.0856 95.843 15.4331C102.28 15.7807 108.588 15.5836 114.958 15.0648C121.328 14.5461 127.95 13.9081 134.454 13.4724C140.958 13.0366 147.302 12.7306 153.734 12.5283C155.364 12.4764 156.999 12.4349 158.629 12.3986C159.975 12.3675 161.27 11.2263 161.208 9.80501C161.146 8.38371 160.073 7.18028 158.629 7.2114C145.378 7.51226 132.159 8.3474 118.96 9.53527C112.348 10.1266 105.746 10.5935 99.1027 10.3912C92.4594 10.1889 86.0586 9.50415 79.5701 8.73644C67.0779 7.25808 54.5393 5.4685 41.9285 6.1584C35.7236 6.49556 29.5033 7.39814 23.5461 9.20329C20.8021 10.0332 17.8931 10.9566 15.4174 12.4349C14.0764 13.2338 12.9262 14.2504 12.039 15.5369C11.0745 16.9322 10.729 18.6596 10.6413 20.3247C10.4969 23.2088 10.8682 26.1914 11.2447 29.0444C11.6574 32.1878 12.235 35.3001 13.0242 38.3658C14.5406 44.2585 16.7791 49.9851 19.6365 55.3487C20.3276 56.6403 21.0549 57.9112 21.8182 59.1665C22.5248 60.3233 24.1599 60.8679 25.3462 60.095C26.5325 59.3221 27.0276 57.7815 26.2694 56.547L26.2849 56.5366Z" fill="#BEFF00"/>
<path d="M203.803 14.6034C213.232 14.8109 222.665 14.7798 232.089 14.4997C241.471 14.2248 250.848 13.7008 260.204 12.9435C265.521 12.513 270.829 11.9994 276.131 11.4133C276.822 11.3355 277.42 10.8738 277.42 10.1165C277.42 9.47327 276.827 8.74187 276.131 8.81968C266.759 9.85712 257.357 10.656 247.944 11.211C238.531 11.766 229.19 12.0721 219.803 12.1343C214.47 12.1706 209.136 12.1343 203.803 12.0098C202.142 11.9735 202.142 14.5671 203.803 14.6034Z" fill="#BEFF00"/>
<path d="M210.58 19.3428C222.206 21.1065 233.77 19.1509 245.256 17.268C248.052 16.8115 250.852 16.355 253.663 15.9763C253.215 16.0386 253.637 15.9763 253.72 15.9712C253.926 15.9452 254.133 15.9193 254.339 15.8933C254.669 15.8518 254.999 15.8103 255.329 15.7689C256.067 15.6807 256.799 15.5977 257.537 15.5199C258.919 15.3746 260.301 15.2553 261.689 15.1464C267.28 14.7107 272.886 14.5032 278.477 14.0882C284.873 13.611 291.289 12.864 297.51 11.2508C298.815 10.9136 299.733 9.37821 299.31 8.06065C298.887 6.7431 297.536 5.88721 296.138 6.25032C293.456 6.9454 290.738 7.48487 287.999 7.89985C287.679 7.94653 287.354 7.99322 287.034 8.0399C286.874 8.06065 286.714 8.08659 286.549 8.10734C287.019 8.04509 286.596 8.10215 286.508 8.10734C285.781 8.20071 285.054 8.28889 284.326 8.3667C282.949 8.51713 281.567 8.64681 280.185 8.76611C274.681 9.22259 269.157 9.43008 263.649 9.81393C258.14 10.1978 252.266 10.924 246.613 11.8266C243.812 12.2727 241.011 12.7499 238.211 13.1908C236.813 13.4139 235.41 13.6265 234.012 13.8236C233.847 13.8444 233.682 13.8703 233.517 13.8911C233.434 13.9015 233.011 13.9585 233.46 13.9015C233.13 13.9481 232.8 13.9896 232.47 14.0311C231.732 14.1245 230.99 14.2127 230.247 14.2957C227.173 14.638 224.088 14.8663 220.994 14.8974C219.431 14.913 217.873 14.8766 216.316 14.7833C215.537 14.7366 214.758 14.6743 213.979 14.5914C213.567 14.5499 213.159 14.5032 212.752 14.4513C212.669 14.4409 212.246 14.3839 212.7 14.4513C212.452 14.415 212.21 14.3787 211.962 14.3424C210.632 14.1401 209.126 14.6743 208.79 16.1527C208.512 17.3873 209.167 19.125 210.591 19.3428H210.58Z" fill="#BEFF00"/>
<path d="M269.73 137.093C269.384 130.552 276.311 126.709 280.159 122.533C284.006 118.357 286.895 113.18 289.51 108.05C292.145 102.879 294.631 97.5876 298.03 92.8672C301.889 87.5036 306.964 83.1464 311.363 78.26C316.387 72.6786 320.926 66.6458 324.908 60.2708C325.795 58.8547 323.562 57.5527 322.68 58.9636C319.126 64.654 315.129 70.059 310.713 75.1062C306.267 80.1845 301.125 84.6558 296.978 89.9935C293.337 94.6827 290.691 99.9892 288.024 105.275C285.358 110.561 282.789 115.603 279.009 119.95C274.557 125.064 266.733 129.292 267.146 137.104C267.233 138.764 269.812 138.774 269.724 137.104L269.73 137.093Z" fill="#BEFF00"/>
<path d="M79.4369 137.797C78.5755 135.312 77.8741 132.771 77.3428 130.193C77.0798 128.927 76.858 127.651 76.6723 126.37C76.6517 126.214 76.6259 126.058 76.6053 125.903C76.6775 126.401 76.6156 125.991 76.6053 125.892C76.5691 125.581 76.5279 125.27 76.4918 124.959C76.4144 124.258 76.3422 123.553 76.2855 122.848C75.8574 117.614 76.0121 112.343 76.6156 107.13C76.6517 106.814 76.6878 106.503 76.729 106.186C76.7394 106.114 76.8013 105.616 76.76 105.942C76.7187 106.269 76.7858 105.771 76.7961 105.699C76.8889 105.035 76.9869 104.365 77.0952 103.702C77.3067 102.374 77.5491 101.056 77.8173 99.7385C78.3486 97.1293 78.983 94.5461 79.6948 91.9836C81.1493 86.7549 82.9442 81.6247 84.9299 76.5724C85.4818 75.177 86.044 73.7869 86.6217 72.3967C86.6836 72.2463 86.7455 72.0958 86.8074 71.9454C86.8796 71.7742 86.8693 71.795 86.7816 72.0025L86.8744 71.7794C87.0343 71.4059 87.1891 71.0325 87.3489 70.659C87.6378 69.9846 87.9266 69.3155 88.2155 68.6463C89.4482 65.8193 90.717 63.0078 92.0013 60.2067C92.5635 58.9774 92.3881 57.3538 91.078 56.6587C89.9433 56.057 88.1536 56.2748 87.5501 57.5872C82.9029 67.7282 78.4105 78.0041 75.2488 88.7312C72.1695 99.1783 70.3798 110.16 70.9987 121.073C71.3495 127.22 72.4326 133.352 74.4493 139.172C74.8929 140.448 76.2339 141.433 77.6213 140.982C78.8798 140.572 79.8959 139.161 79.4214 137.792L79.4369 137.797Z" fill="#BEFF00"/>
<path d="M280.657 125.353C281.808 115.337 281.931 105.196 280.632 95.1895C279.306 84.9862 276.598 75.1253 272.565 65.6639C268.531 56.2024 263.399 47.1766 256.405 39.7174C249.319 32.1597 240.38 26.6768 231.622 21.3132C222.715 15.8562 213.477 10.8195 203.553 7.47371C202.331 7.06392 201.098 6.68007 199.86 6.32215C198.623 5.96424 196.993 6.77863 196.688 8.13249C196.384 9.48635 197.101 10.9232 198.488 11.3226C200.959 12.0333 203.399 12.858 205.802 13.7814C206.344 13.9889 206.885 14.2067 207.427 14.4246C207.716 14.5387 207.999 14.658 208.288 14.7773C208.433 14.8344 208.572 14.8966 208.716 14.9589C208.99 15.073 208.407 14.824 208.85 15.0159C210.021 15.5243 211.187 16.0482 212.347 16.5928C216.953 18.7715 221.42 21.2406 225.799 23.8446C230.121 26.4122 234.413 29.0473 238.601 31.8277C240.679 33.2075 242.727 34.6391 244.713 36.1538C244.836 36.2472 244.955 36.3405 245.079 36.4339C245.399 36.6777 244.785 36.2005 245.099 36.4495C245.342 36.6414 245.579 36.8281 245.822 37.0201C246.332 37.4247 246.832 37.8397 247.333 38.2598C248.272 39.0483 249.19 39.8627 250.082 40.703C251.908 42.42 253.625 44.251 255.229 46.1807C255.616 46.6475 255.993 47.1144 256.364 47.5916C256.436 47.6798 256.503 47.7732 256.57 47.8613C256.818 48.1726 256.343 47.5553 256.581 47.8769C256.782 48.1466 256.988 48.4216 257.194 48.6913C257.937 49.6976 258.649 50.7195 259.34 51.7569C262.105 55.9223 264.488 60.347 266.597 64.8806C267.118 66.001 267.624 67.137 268.108 68.273C268.17 68.4131 268.227 68.5583 268.289 68.6984C268.103 68.2575 268.258 68.6309 268.294 68.7191C268.413 69.0044 268.526 69.2845 268.645 69.5698C268.887 70.1715 269.124 70.7733 269.357 71.3802C270.239 73.6729 271.038 75.9916 271.76 78.3362C273.179 82.958 274.282 87.6784 275.061 92.4558C275.154 93.042 275.247 93.6281 275.334 94.2143C275.376 94.5099 275.417 94.8004 275.458 95.0961C275.53 95.5993 275.469 95.1635 275.458 95.0702C275.484 95.2517 275.505 95.4385 275.53 95.6252C275.685 96.8442 275.814 98.0632 275.928 99.2874C276.149 101.71 276.294 104.143 276.366 106.57C276.51 111.581 276.33 116.602 275.886 121.598C275.773 122.848 275.644 124.098 275.5 125.348C275.345 126.702 276.794 127.999 278.078 127.942C279.61 127.874 280.492 126.795 280.657 125.348V125.353Z" fill="#BEFF00"/>
<path d="M114.691 197.643C117.91 200.559 121.551 202.934 125.296 205.092C129.04 207.25 132.79 209.356 136.653 211.239C140.728 213.226 144.947 214.844 149.393 215.742C153.839 216.639 158.445 216.997 163.004 217.106C172.252 217.329 181.464 216.738 190.666 215.861C195.344 215.415 200.079 215.036 204.649 213.885C208.579 212.894 212.37 211.281 215.908 209.304C222.897 205.388 228.983 200.009 234.832 194.573C235.544 193.909 236.256 193.245 236.967 192.575C237.958 191.647 237.968 189.831 236.967 188.908C235.91 187.928 234.373 187.917 233.321 188.908C230.494 191.559 227.652 194.204 224.697 196.715C223.949 197.348 223.196 197.975 222.433 198.587C222.092 198.857 221.752 199.127 221.411 199.397C221.329 199.459 221.025 199.692 221.422 199.391C221.334 199.459 221.251 199.521 221.164 199.589C220.963 199.744 220.761 199.895 220.56 200.045C219.013 201.207 217.419 202.317 215.779 203.349C214.139 204.382 212.54 205.284 210.848 206.109C210.436 206.311 210.018 206.508 209.595 206.7C209.399 206.788 209.208 206.871 209.012 206.96C208.971 206.98 208.641 207.12 208.93 206.996C209.26 206.856 208.646 207.11 208.646 207.11C207.79 207.458 206.923 207.779 206.046 208.07C204.03 208.739 201.966 209.232 199.878 209.595C199.388 209.678 198.898 209.761 198.408 209.833C198.243 209.859 198.083 209.88 197.918 209.906C197.897 209.906 197.49 209.963 197.768 209.927C198.047 209.89 197.639 209.942 197.618 209.947C197.453 209.968 197.288 209.989 197.123 210.01C196.014 210.145 194.9 210.264 193.786 210.373C184.781 211.265 175.77 211.986 166.718 211.965C164.505 211.965 162.293 211.924 160.08 211.815C159.028 211.763 157.976 211.696 156.923 211.602C156.397 211.555 155.876 211.509 155.35 211.452C155.067 211.421 154.788 211.39 154.504 211.353C154.386 211.338 154.262 211.322 154.143 211.307C154.097 211.301 153.607 211.234 153.885 211.275C154.164 211.317 153.777 211.26 153.746 211.255C153.586 211.229 153.426 211.208 153.267 211.182C153.029 211.146 152.787 211.109 152.55 211.068C151.993 210.975 151.436 210.876 150.878 210.762C149.811 210.549 148.748 210.3 147.696 210.015C146.644 209.73 145.69 209.424 144.705 209.076C144.215 208.905 143.73 208.723 143.245 208.531C143.023 208.443 142.801 208.355 142.58 208.267C142.43 208.205 142.286 208.142 142.136 208.085C142.384 208.189 142.27 208.142 142.09 208.064C138.175 206.363 134.446 204.267 130.717 202.198C128.932 201.207 127.158 200.206 125.42 199.137C124.538 198.593 123.661 198.038 122.805 197.451C122.392 197.171 121.985 196.886 121.577 196.596C121.391 196.461 121.206 196.326 121.02 196.191C120.927 196.124 120.834 196.056 120.741 195.983C120.705 195.958 120.329 195.672 120.545 195.838C120.788 196.025 120.406 195.729 120.355 195.688C120.267 195.615 120.174 195.543 120.086 195.47C119.906 195.325 119.731 195.179 119.555 195.034C119.143 194.692 118.74 194.334 118.338 193.976C117.337 193.068 115.666 192.907 114.691 193.976C113.789 194.967 113.619 196.673 114.691 197.643Z" fill="#BEFF00"/>
<path d="M253.77 170.733C250.129 175.578 247.132 180.853 244.233 186.165C241.335 191.477 238.42 196.861 235.192 202.027C228.734 212.35 221.369 222.065 213.709 231.511C209.372 236.859 204.941 242.124 200.511 247.389C200.062 247.924 199.99 248.702 200.511 249.226C200.97 249.687 201.883 249.765 202.336 249.226C210.295 239.769 218.253 230.303 225.66 220.4C229.322 215.504 232.845 210.503 236.151 205.352C239.447 200.217 242.433 194.916 245.342 189.552C248.602 183.54 251.898 177.518 256.009 172.045C256.426 171.485 256.096 170.593 255.544 170.271C254.884 169.882 254.203 170.178 253.78 170.738L253.77 170.733Z" fill="#BEFF00"/>
<path d="M115.881 194.263C118.475 198.578 123.163 201.359 128.167 201.592C128.863 201.623 129.456 200.975 129.456 200.295C129.456 199.564 128.863 199.03 128.167 198.999C124.102 198.807 120.224 196.478 118.109 192.955C117.253 191.529 115.019 192.831 115.881 194.263Z" fill="#BEFF00"/>
<path d="M47.0078 97.0927C53.0218 105.88 59.6393 114.247 66.8138 122.1C68.8408 124.32 70.9194 126.499 73.0341 128.636C74.2049 129.819 76.0308 127.988 74.8599 126.8C67.5049 119.372 60.6554 111.43 54.4093 103.037C52.635 100.651 50.9123 98.2339 49.236 95.7804C48.844 95.2046 48.1064 94.9452 47.472 95.3135C46.9047 95.6455 46.6107 96.5066 47.0078 97.0876V97.0927Z" fill="#BEFF00"/>
<path d="M117.648 13.5482C125.251 13.3252 132.863 13.6364 140.425 14.4871C141.116 14.5649 141.714 13.8335 141.714 13.1903C141.714 12.4226 141.121 11.9713 140.425 11.8935C132.863 11.0428 125.251 10.7264 117.648 10.9546C115.992 11.0013 115.987 13.5949 117.648 13.5482Z" fill="#BEFF00"/>
<path d="M273.018 102.758C273.162 106.674 273.023 110.596 272.584 114.491C272.533 114.943 272.481 115.394 272.419 115.84C272.486 115.311 272.394 116.022 272.378 116.13C272.342 116.374 272.306 116.618 272.27 116.867C272.12 117.847 271.95 118.823 271.764 119.793C271.393 121.738 270.938 123.662 270.422 125.571C270.066 126.878 270.866 128.45 272.223 128.761C273.58 129.073 275.015 128.352 275.397 126.951C277.528 119.098 278.482 110.897 278.178 102.758C278.126 101.404 277.027 100.102 275.598 100.164C274.241 100.227 272.966 101.305 273.018 102.758Z" fill="#BEFF00"/>
<path d="M101.925 184.301L109.76 195.63C112.112 199.033 114.35 202.97 118.074 205.04C119.255 205.698 120.942 205.367 121.602 204.111C122.262 202.856 121.937 201.263 120.679 200.563C120.256 200.33 119.848 200.07 119.467 199.775C119.823 200.044 119.518 199.806 119.353 199.655C119.198 199.521 119.049 199.375 118.899 199.235C118.574 198.919 118.27 198.587 117.976 198.244C117.816 198.058 117.661 197.871 117.507 197.679C117.424 197.575 117.048 197.067 117.393 197.539C116.202 195.915 115.072 194.24 113.927 192.585L106.387 181.682C105.618 180.572 104.091 179.949 102.859 180.753C101.76 181.464 101.11 183.108 101.935 184.301H101.925Z" fill="#BEFF00"/>
<path d="M9.9084 20.5511C9.9084 20.4111 9.9084 20.271 9.92387 20.131L9.83103 20.8209C9.86713 20.5408 9.93934 20.2814 10.0425 20.022L9.78461 20.6393C9.91355 20.3436 10.0734 20.0739 10.2643 19.8197L9.86198 20.3436C10.1302 19.9961 10.4396 19.6952 10.7801 19.4203L10.2591 19.8249C11.1617 19.1246 12.1985 18.6526 13.1423 18.025C14.2822 17.2624 15.4169 16.2872 15.9894 15.0008C16.2834 14.3472 16.4485 13.7248 16.2473 13.0037C16.0823 12.402 15.6181 11.7484 15.061 11.4528C14.4627 11.1363 13.7355 10.9755 13.0753 11.1934C12.477 11.3905 11.8013 11.7796 11.5331 12.3865C11.399 12.6873 11.234 12.9571 11.0328 13.2164L11.4351 12.6925C11.1617 13.0349 10.842 13.3305 10.5015 13.6003L11.0225 13.1957C10.4861 13.6055 9.9084 13.9426 9.32557 14.2746C8.53642 14.7259 7.7937 15.2135 7.08192 15.7945C5.68932 16.9305 4.70418 18.7252 4.7506 20.5563C4.76607 21.2307 5.02396 21.905 5.50364 22.3926C5.95236 22.8439 6.68477 23.181 7.3295 23.1499C8.69631 23.0877 9.9445 22.0087 9.9084 20.5563V20.5511Z" fill="#BEFF00"/>
<path d="M310.735 9.74274C311.07 9.64937 311.415 9.58712 311.756 9.50931C311.359 9.52487 312.148 9.42113 311.756 9.50931C311.911 9.50412 312.065 9.48338 312.22 9.473C312.922 9.4315 313.623 9.45744 314.319 9.53006C314.453 9.54562 314.964 9.62343 314.448 9.54043C314.603 9.56637 314.758 9.58712 314.912 9.61824C315.222 9.67012 315.526 9.73236 315.831 9.7998C316.537 9.95541 317.233 10.1422 317.93 10.3341C319.286 10.7127 320.638 11.1277 322.015 11.439C323.392 11.7502 324.743 11.8799 326.074 12.2378C326.368 12.3156 326.662 12.4038 326.946 12.5075C327.075 12.5542 327.204 12.6061 327.332 12.6579C326.832 12.4556 327.183 12.5957 327.286 12.6476C327.838 12.9381 328.374 13.2337 328.89 13.5916C328.89 13.5916 329.447 13.9911 329.133 13.7576C328.864 13.5605 329.22 13.8303 329.282 13.8769C329.499 14.0533 329.71 14.24 329.917 14.4268C330.412 14.8781 330.881 15.3553 331.33 15.8481C331.711 16.2631 332.072 16.6884 332.434 17.1241C332.619 17.3472 332.8 17.5754 332.975 17.8037C333.037 17.8815 333.279 18.1875 332.975 17.8037C333.109 17.98 333.243 18.1564 333.372 18.3379C334.136 19.3858 334.837 20.4803 335.441 21.6266C335.611 21.9534 335.776 22.2802 335.93 22.6174C335.992 22.7523 336.049 22.8871 336.111 23.0168C336.245 23.2969 335.972 22.6433 336.147 23.105C336.4 23.7845 336.637 24.4692 336.812 25.1695C336.9 25.517 336.967 25.8698 337.034 26.2225C337.06 26.347 337.163 26.7049 337.034 26.1706C337.081 26.3678 337.081 26.6115 337.096 26.8139C337.148 27.5349 337.132 28.2611 337.06 28.9821C336.926 30.336 338.339 31.6328 339.639 31.5757C341.15 31.5083 342.079 30.4345 342.218 28.9821C342.806 22.9546 339.412 17.3679 335.673 12.9744C333.744 10.7076 331.479 8.77273 328.704 7.65229C327.332 7.09726 325.878 6.91052 324.439 6.64597C323 6.38142 321.545 5.96645 320.117 5.56184C316.62 4.56071 312.963 3.74113 309.363 4.73708C308.063 5.09499 307.135 6.5941 307.563 7.92721C307.991 9.26033 309.342 10.1266 310.735 9.73755V9.74274Z" fill="#BEFF00"/>
<path d="M229.466 211.46C231.152 210.433 232.282 208.825 233.117 207.067C233.855 205.521 234.561 204.001 235.505 202.559C237.548 199.447 239.946 196.609 241.024 192.968C241.411 191.666 240.56 190.084 239.224 189.778C237.888 189.472 236.465 190.198 236.052 191.588C235.944 191.951 235.851 192.434 235.655 192.755C235.97 192.247 235.655 192.75 235.593 192.89C235.505 193.077 235.418 193.258 235.325 193.44C234.953 194.171 234.525 194.877 234.077 195.567C233.148 196.993 232.117 198.347 231.173 199.763C230.229 201.179 229.558 202.533 228.878 204.006C228.558 204.701 228.228 205.391 227.81 206.029C227.763 206.097 227.387 206.6 227.635 206.294C227.882 205.988 227.475 206.465 227.423 206.522C227.294 206.657 227.155 206.771 227.026 206.901C226.881 207.025 226.933 206.984 227.186 206.776C227.083 206.849 226.979 206.916 226.871 206.979C225.716 207.679 225.185 209.339 225.948 210.527C226.711 211.715 228.243 212.207 229.476 211.455L229.466 211.46Z" fill="#BEFF00"/>
<path d="M235.394 194.752C240.624 187.905 245.498 180.783 249.98 173.417C254.462 166.051 258.769 158.125 262.823 150.308C264.902 146.303 266.629 142.2 267.217 137.698C267.496 135.545 267.542 133.377 267.702 131.214C267.743 130.685 267.785 130.156 267.847 129.626C267.862 129.476 267.95 128.905 267.878 129.346C267.924 129.066 267.965 128.781 268.017 128.501C268.203 127.469 268.476 126.457 268.806 125.461C268.95 125.025 269.105 124.595 269.27 124.17C269.368 123.921 269.466 123.672 269.564 123.423C269.621 123.283 269.889 122.65 269.698 123.091C270.111 122.141 270.529 121.192 270.941 120.243C271.797 118.267 272.628 116.269 273.164 114.179C274.165 110.273 274.34 106.191 274.17 102.181C274.005 98.2387 273.536 94.3223 273.288 90.3852C273.164 88.44 273.097 86.4845 273.159 84.5341C273.185 83.59 273.247 82.6407 273.34 81.7018C273.36 81.484 273.391 81.2713 273.412 81.0534C273.453 80.6592 273.345 81.4892 273.407 81.0949C273.422 80.986 273.438 80.8771 273.453 80.7733C273.531 80.2702 273.618 79.7722 273.721 79.2742C273.912 78.3457 274.155 77.4276 274.438 76.525C274.846 75.2334 273.959 73.6357 272.638 73.3349C271.23 73.0133 269.899 73.7602 269.466 75.1452C267.052 82.8171 268.213 90.8884 268.806 98.7367C268.956 100.692 269.069 102.648 269.074 104.609C269.074 105.558 269.054 106.512 269.002 107.462C268.976 107.934 268.94 108.406 268.894 108.878C268.873 109.096 268.852 109.313 268.827 109.526C268.816 109.63 268.811 109.749 268.785 109.853C268.925 109.303 268.796 109.78 268.775 109.92C268.486 111.86 268.001 113.754 267.315 115.59C267.155 116.02 266.985 116.446 266.81 116.871C266.8 116.902 266.65 117.255 266.763 116.985C266.877 116.716 266.727 117.068 266.717 117.099C266.598 117.379 266.475 117.665 266.351 117.945C265.954 118.858 265.546 119.766 265.159 120.684C264.308 122.696 263.504 124.73 263.086 126.882C262.648 129.16 262.519 131.473 262.39 133.787C262.328 134.85 262.266 135.908 262.147 136.966C262.132 137.086 262.116 137.21 262.106 137.33C262.065 137.75 262.173 136.951 262.101 137.366C262.06 137.61 262.023 137.848 261.982 138.092C261.884 138.637 261.766 139.171 261.631 139.705C261.379 140.691 261.069 141.661 260.713 142.615C260.631 142.833 260.548 143.056 260.461 143.274C260.404 143.419 260.342 143.565 260.285 143.71C260.172 143.99 260.301 143.673 260.316 143.632C260.11 144.099 259.904 144.571 259.687 145.033C257.851 148.949 255.7 152.736 253.637 156.538C251.517 160.454 249.361 164.344 247.097 168.173C242.728 175.559 237.973 182.712 232.851 189.596C232.222 190.441 231.582 191.287 230.943 192.127C230.117 193.206 230.741 195.079 231.866 195.675C233.233 196.401 234.512 195.898 235.394 194.747V194.752Z" fill="#BEFF00"/>
<path d="M153.641 168.851C153.837 169.308 154.033 169.764 154.224 170.221C154.322 170.449 154.415 170.677 154.513 170.906C154.307 170.418 154.627 171.17 154.637 171.201C155.05 172.192 155.457 173.188 155.859 174.184C156.602 176.025 157.324 177.872 158.031 179.724C159.47 183.511 160.826 187.328 162.1 191.172C163.374 195.016 164.561 198.891 165.68 202.786C165.953 203.746 166.257 204.716 166.742 205.592C167.31 206.62 168.125 207.398 169.079 208.051C170.745 209.192 172.813 209.919 174.67 210.666C178.724 212.3 182.948 213.477 187.255 214.198C188.58 214.421 190.097 213.851 190.427 212.388C190.711 211.138 190.05 209.436 188.627 209.198C184.867 208.565 181.174 207.59 177.594 206.267C177.146 206.101 176.702 205.93 176.258 205.753C176.037 205.665 175.815 205.577 175.598 205.484C175.552 205.468 174.83 205.157 175.335 205.375C174.479 205.006 173.623 204.622 172.782 204.202C172.4 204.01 172.039 203.798 171.678 203.569C171.152 203.248 171.941 203.922 171.544 203.45C171.456 203.346 171.348 203.248 171.255 203.144C171.642 203.58 171.25 203.082 171.188 202.973C171.137 202.874 170.884 202.247 171.095 202.828C170.92 202.361 170.781 201.884 170.647 201.406C168.48 193.854 166.03 186.389 163.261 179.039C161.636 174.729 159.903 170.465 158.087 166.232C157.551 164.982 155.632 164.603 154.56 165.303C153.27 166.139 153.059 167.513 153.636 168.851H153.641Z" fill="#BEFF00"/>
<path d="M155.761 213.693C158.984 213.745 162.156 212.967 165.246 212.116C168.083 211.333 170.92 210.659 173.839 210.264L172.812 210.404C184.572 208.859 196.507 210.524 208.226 208.449C213.698 207.479 218.954 205.487 223.782 202.738C228.61 199.988 232.72 196.731 236.707 193.141C241.066 189.22 245.089 184.946 249.081 180.656C250.463 179.172 250.654 176.61 249.081 175.152C247.508 173.695 245.089 173.565 243.608 175.152C240.22 178.794 236.81 182.419 233.19 185.833C231.39 187.534 229.533 189.178 227.609 190.74C227.361 190.937 227.114 191.134 226.866 191.331C226.742 191.43 226.35 191.73 226.84 191.352C227.392 190.926 226.825 191.362 226.732 191.435C226.232 191.819 225.726 192.192 225.216 192.566C224.256 193.261 223.276 193.93 222.276 194.568C219.934 196.062 217.489 197.385 214.936 198.479L215.859 198.085C212.048 199.703 208.051 200.725 203.955 201.29L204.982 201.15C192.639 202.805 180.08 200.86 167.815 203.438C164.379 204.159 161.058 205.394 157.571 205.886L158.598 205.746C157.649 205.871 156.705 205.933 155.75 205.917C153.729 205.886 151.789 207.728 151.882 209.808C151.975 211.888 153.579 213.662 155.75 213.698L155.761 213.693Z" fill="#BEFF00"/>
</g>
<defs>
<clipPath id="clip0_707_1593">
<rect width="345" height="275" fill="white"/>
</clipPath>
</defs>
</svg>
