<svg width="102" height="81" viewBox="0 0 102 81" fill="none" xmlns="http://www.w3.org/2000/svg">
<g clip-path="url(#clip0_707_1548)">
<path d="M56.6439 76.986C54.291 80.4772 49.3823 80.4772 47.0294 76.986L24.363 43.3591L3.53576 12.4564C0.752787 8.32662 3.54643 2.59863 8.34381 2.59863H95.331C100.128 2.59863 102.922 8.32662 100.139 12.4564L79.3103 43.3576L56.6439 76.9845V76.986Z" stroke="black" stroke-width="1.35154" stroke-miterlimit="10"/>
<path d="M51.835 61.9319C67.6631 61.9319 80.4943 48.7769 80.4943 32.5494C80.4943 16.322 67.6631 3.16699 51.835 3.16699C36.007 3.16699 23.1758 16.322 23.1758 32.5494C23.1758 48.7769 36.007 61.9319 51.835 61.9319Z" stroke="black" stroke-width="1.35154" stroke-miterlimit="10"/>
<path d="M29.9203 10.1846C25.463 14.3679 23.4272 20.4412 22.8249 26.3983C22.1814 32.7649 23.1131 39.3073 25.6155 45.2003C28.1286 51.1162 32.3434 56.2651 37.9094 59.5286C40.5719 61.0901 43.5165 62.2207 46.5617 62.7479C48.0821 63.0107 49.6253 63.1421 51.167 63.1039C53.0792 63.0565 54.9853 62.7692 56.8549 62.3781C58.6604 62.0007 60.4644 61.5592 62.2302 61.026C63.8893 60.5233 65.5118 59.8678 66.9636 58.9083C69.7724 57.0504 71.9592 54.395 74.0239 51.7701C75.1371 50.3538 76.2045 48.8993 77.1332 47.3546C78.0573 45.816 78.8213 44.1904 79.4282 42.5021C80.6237 39.1789 81.1941 35.6603 81.496 32.1523C81.7979 28.6443 81.9687 25.0844 80.2379 22.0011C79.416 20.5374 78.2632 19.3044 77.275 17.9584C76.3708 16.7284 75.5824 15.4206 74.7818 14.1219C73.1517 11.4741 71.4148 8.81101 68.7889 7.05091C66.163 5.2908 62.86 4.57881 59.7202 4.06545C58.0626 3.79502 56.4035 3.53222 54.7505 3.23429C52.8657 2.8951 50.9702 2.56202 49.0565 2.44132C47.1427 2.32062 45.3662 2.43979 43.5759 2.8844C41.8162 3.3229 40.1357 4.04253 38.4995 4.81869C36.9578 5.55054 35.4115 6.29767 33.9278 7.14105C32.4441 7.98443 31.1189 8.90574 29.9905 10.1112C27.7199 12.5375 26.6097 15.7521 25.6033 18.8552C24.4596 22.377 23.3068 25.943 23.0857 29.6664C22.8645 33.3898 23.5645 36.8489 24.6304 40.2637C25.1611 41.9643 25.7878 43.6327 26.4496 45.2858C27.1114 46.939 27.7961 48.638 28.5479 50.2759C29.2555 51.8175 30.146 53.2583 31.4163 54.3996C32.6865 55.5409 34.1016 56.3598 35.5274 57.2093C38.5117 58.9832 41.5387 60.7265 44.8035 61.9381C46.4016 62.5324 48.0516 62.9786 49.7427 63.2078C51.5299 63.4507 53.3079 63.4323 55.0921 63.1818C58.6253 62.6852 61.9954 61.2842 65.1169 59.5943C68.0432 58.0099 70.7453 56.0313 72.9336 53.5073C76.9731 48.8504 79.2818 42.9283 80.5536 36.9544C80.886 35.3944 81.1453 33.8207 81.3526 32.2394C81.5799 30.5175 81.7369 28.7803 81.682 27.0431C81.6271 25.3059 81.3557 23.4694 80.7107 21.8086C80.0656 20.1493 79.111 18.6612 78.0817 17.2189C76.0749 14.4045 74.0056 11.5535 71.4011 9.25562C68.9856 7.12424 66.1553 5.55818 63.1391 4.45658C60.1426 3.36263 56.9952 2.74995 53.834 2.38632C50.499 2.00435 47.0497 1.77059 43.7147 2.25492C41.9733 2.50855 40.2821 3.02955 38.7282 3.86224C37.1743 4.69493 35.901 5.70638 34.6628 6.84159C32.1376 9.15478 29.8212 11.8056 27.9242 14.6597C26.0272 17.5138 24.6029 20.8002 23.7093 24.1661C22.8157 27.532 22.3308 30.9529 22.4208 34.3677C22.5047 37.5594 23.1955 40.7924 24.9461 43.5013C25.1702 43.8466 25.6216 43.9902 25.9891 43.7748C26.3322 43.5731 26.4877 43.0781 26.2621 42.7297C24.5557 40.088 23.9579 36.962 23.9366 33.8604C23.9137 30.5618 24.4276 27.2264 25.3197 24.0546C26.2224 20.8506 27.6009 17.8209 29.4796 15.0737C30.4312 13.6834 31.491 12.3725 32.6149 11.1181C33.7387 9.86371 34.829 8.72698 36.0429 7.64677C37.2033 6.61546 38.4614 5.6911 39.8536 4.99592C41.2459 4.30074 42.9019 3.86224 44.5031 3.6789C46.2049 3.48333 47.9219 3.49861 49.6298 3.57959C51.1639 3.6514 52.6965 3.7721 54.2214 3.9585C60.1533 4.68271 66.2194 6.53754 70.7148 10.6888C73.1669 12.9531 75.1645 15.6956 77.0707 18.4228C78.0055 19.7597 78.8945 21.1623 79.4221 22.7177C79.9604 24.3036 80.1586 25.9675 80.1663 27.6374C80.1815 30.7833 79.6615 33.9506 78.9799 37.014C78.3364 39.9108 77.4458 42.8015 76.2228 45.4753C75.0273 48.091 73.51 50.5769 71.61 52.7021C69.4492 55.1207 66.8187 56.9695 63.9625 58.4775C60.9905 60.0466 57.7653 61.3544 54.4028 61.741C52.7834 61.9274 51.1349 61.9075 49.5262 61.6417C47.9174 61.3758 46.336 60.9053 44.8111 60.314C41.6911 59.1054 38.7938 57.3789 35.9285 55.6708C34.6079 54.8839 33.2675 54.0925 32.162 53.0092C31.0183 51.8908 30.2863 50.4775 29.6474 49.0276C28.2566 45.8649 26.9254 42.6396 25.9327 39.3256C24.9415 36.0117 24.3498 32.5694 24.6456 29.1026C24.9415 25.6252 26.0852 22.27 27.1618 18.9744C28.1133 16.0608 29.1807 13.0188 31.4193 10.8278C32.534 9.7369 33.8607 8.90421 35.2255 8.16472C36.6757 7.37787 38.1655 6.64755 39.6615 5.95084C41.1574 5.25413 42.8226 4.59409 44.5046 4.23504C46.1866 3.87599 47.9936 3.8653 49.7381 4.02114C51.5162 4.18004 53.2713 4.51617 55.025 4.83091C56.6445 5.12273 58.2715 5.36108 59.8925 5.6361C62.8539 6.13877 65.8595 6.81561 68.3344 8.59253C70.8094 10.3694 72.2428 12.9164 73.7616 15.3824C74.547 16.6597 75.3414 17.9339 76.2518 19.1272C77.2262 20.403 78.315 21.6115 79.0637 23.0431C79.8125 24.4747 80.0793 26.0912 80.1403 27.6863C80.2013 29.2814 80.0763 31.0323 79.9177 32.6931C79.599 36.0621 78.9768 39.4295 77.7676 42.5998C76.5583 45.7702 74.6842 48.5127 72.6057 51.1162C70.6188 53.6066 68.5129 56.1765 65.7665 57.8602C64.3483 58.7311 62.7899 59.2857 61.1948 59.7364C59.4793 60.2208 57.7409 60.6516 55.9918 60.9985C52.8123 61.6295 49.5521 61.7945 46.4092 61.1726C40.552 60.0145 35.2819 56.6608 31.4895 52.0589C27.697 47.4569 25.2282 41.2477 24.4581 35.1698C24.0784 32.1737 24.0494 29.1225 24.3757 26.1202C24.6746 23.367 25.3593 20.4091 26.4649 17.8606C27.5704 15.3121 29.0206 13.1181 30.9954 11.2663C31.7136 10.5925 30.6325 9.51383 29.9173 10.1861L29.9203 10.1846Z" fill="black"/>
<path d="M39.4607 33.8734C38.192 36.5884 38.349 39.7068 39.1374 42.5334C39.5537 44.0246 40.1378 45.4623 40.7553 46.8787C41.3729 48.295 42.0652 49.7954 42.7591 51.2361C43.5414 52.8603 44.3572 54.4676 45.205 56.0566C45.4368 56.4905 46.0941 56.1055 45.8638 55.6715C44.3877 52.903 43.0092 50.0826 41.7328 47.2148C40.5464 44.5517 39.3982 41.7649 39.2914 38.81C39.235 37.2577 39.4576 35.6733 40.1179 34.2584C40.2048 34.072 40.1698 33.8459 39.9807 33.7359C39.816 33.6397 39.5461 33.6855 39.4592 33.8734H39.4607Z" fill="black"/>
<path d="M50.1525 60.2824C48.7694 58.7851 47.3162 57.3519 45.9407 55.847C45.9254 55.8317 45.9071 55.8011 45.8888 55.7889C45.8614 55.7736 45.9864 55.847 45.9117 55.8179C45.9483 55.8317 45.9422 55.8653 45.9254 55.8348C45.9132 55.8103 45.8949 55.7874 45.8797 55.7629C45.8385 55.6957 45.8004 55.6254 45.7623 55.5551C45.6388 55.3306 45.5213 55.1014 45.4039 54.8737C45.1081 54.2916 44.8214 53.7034 44.5545 53.1075C44.5179 53.025 44.4798 52.941 44.4447 52.8585C44.428 52.8218 44.4127 52.7836 44.396 52.7469C44.3899 52.7317 44.3822 52.7164 44.3761 52.6996C44.3533 52.6446 44.399 52.753 44.3761 52.6996C44.3212 52.5682 44.2694 52.4383 44.2206 52.3054C44.1855 52.2106 44.152 52.1159 44.1276 52.0181C44.1093 51.9433 44.1169 51.9035 44.1184 52.0013C44.1184 51.9891 44.1169 51.9784 44.1184 51.9662C44.1108 52.0579 44.091 52.1113 44.0208 52.1938H43.481C43.5039 52.2122 43.5252 52.2336 43.545 52.2565C43.5588 52.2718 43.5694 52.2901 43.5847 52.3038C43.6167 52.3359 43.5267 52.2213 43.5862 52.3084C43.6655 52.423 43.7433 52.5361 43.8165 52.6537C44.0239 52.9807 44.2191 53.3168 44.4112 53.653C44.8382 54.397 45.2484 55.1487 45.6555 55.9035C45.7775 56.1296 45.8995 56.3573 46.0215 56.5834C46.2243 56.9562 46.8663 56.7026 46.7184 56.2885C46.3753 55.3336 45.8644 54.4597 45.3993 53.5628C44.9632 52.721 44.5667 51.8317 44.5149 50.8722C44.489 50.3833 43.7265 50.3803 43.7524 50.8722C43.8668 52.9685 45.2972 54.585 45.9819 56.4917L46.6787 56.1969C45.9742 54.8997 45.2956 53.5827 44.5134 52.3313C44.3761 52.1113 44.2267 51.8149 44.0178 51.653C43.8653 51.5338 43.6259 51.4819 43.478 51.653C43.1684 52.0136 43.5252 52.6339 43.6762 52.9944C43.9431 53.6285 44.2404 54.2519 44.5454 54.8676C44.765 55.3092 44.9739 55.7752 45.2423 56.1892C45.4344 56.4856 45.7211 56.7377 45.962 56.9944C46.3387 57.3962 46.7199 57.7935 47.1011 58.1907C47.9414 59.0647 48.7877 59.9325 49.6112 60.8232C49.9451 61.1854 50.4834 60.643 50.151 60.2824H50.1525Z" fill="black"/>
<path d="M51.36 62.6269C29.0444 34.3675 42.0321 12.4807 50.686 2.875C43.1682 13.7519 40.6612 41.9365 51.36 62.6269Z" fill="black" stroke="black" stroke-width="0.772309" stroke-linecap="round" stroke-linejoin="round"/>
<path d="M49.5817 59.6565C47.8433 56.1776 46.0759 52.7108 44.3756 49.2135C42.7943 45.9622 41.4234 42.6361 40.6624 39.0883C39.9442 35.7423 39.7139 32.2939 39.9549 28.8806C40.1958 25.4674 40.9263 22.0572 42.1233 18.8349C43.4027 15.3926 45.2768 12.2223 47.2028 9.11307C47.4437 8.72346 47.6877 8.33386 47.9302 7.94425L47.2714 7.55923C44.5434 12.5844 43.2868 18.265 42.9559 23.9441C42.5976 30.106 43.3722 36.2511 44.1347 42.3534C44.5739 45.8614 45.0069 49.3724 45.2265 52.9018L45.9752 52.801C44.6394 47.5955 42.1538 42.7781 40.7433 37.5971C40.0403 35.015 39.5981 32.3382 39.7414 29.6553C39.81 28.3612 40.025 27.0808 40.3971 25.8387C40.7463 24.6698 41.216 23.5438 41.7223 22.4361C42.872 19.9197 44.2079 17.4491 44.795 14.7204C44.8987 14.2406 44.2109 14.0481 44.06 14.5171C42.6601 18.8502 42.5076 23.4674 42.84 27.9777C43.1725 32.4879 44.063 37.3496 44.5434 42.0509C44.8163 44.7185 44.9581 47.4045 44.8087 50.0859L45.5574 49.9851L43.3814 44.1471C42.6769 42.2571 41.9114 40.3779 41.3243 38.4466C40.7661 36.6086 40.5039 34.7584 40.7112 32.8424C40.9064 31.0395 41.4142 29.2871 41.8504 27.5331C42.3429 25.5514 42.7653 23.5194 42.6128 21.4659C42.5762 20.9816 41.8321 20.9693 41.8504 21.4659C41.9845 24.9922 42.1767 28.517 42.4069 32.0388C42.6372 35.5605 42.901 39.0456 43.1801 42.5474C43.3387 44.5306 43.5003 46.5138 43.662 48.497L44.4107 48.3961C43.055 43.7208 42.1508 38.9157 41.736 34.0647C41.6201 32.7034 41.5408 31.3375 41.4996 29.9715L40.7509 30.0724C40.9461 31.449 41.1138 32.8332 41.3502 34.2037C41.5637 35.4428 41.8931 36.6758 42.5686 37.7484C42.7989 38.1151 43.3692 37.8798 43.2655 37.4535C42.4725 34.19 42.0211 30.8547 41.9174 27.4964C41.9068 27.1526 41.5149 27.0105 41.2663 27.226C40.2568 28.106 39.6377 29.3237 39.4639 30.6453L40.2126 30.5445C39.7048 28.1641 40.2507 25.64 41.6536 23.6599L40.943 23.4674C41.0315 25.2535 40.8683 27.0365 40.4459 28.7752L41.1946 28.8761L41.8824 22.8242H41.1199C41.2373 26.928 41.3578 31.0319 41.4722 35.1357C41.5027 36.2175 41.5194 37.3068 41.1962 38.3519H41.9312C41.4417 35.9745 41.338 33.533 41.6048 31.122C41.6521 30.6912 40.9583 30.6087 40.8561 31.0212C40.6929 31.6797 40.3986 32.2939 39.9671 32.821L40.6182 33.0915L41.1321 25.8876C41.1672 25.3925 40.42 25.4063 40.3697 25.8876C40.0769 28.6729 40.086 31.4826 40.3941 34.2649C40.4474 34.7416 41.1565 34.7691 41.1565 34.2649C41.1565 32.3871 41.28 30.5094 41.5408 28.6499C41.5698 28.4437 41.4905 28.242 41.2739 28.1794C41.0955 28.1274 40.8332 28.242 40.8043 28.4467C40.5328 30.3749 40.391 32.3168 40.3925 34.2649H41.155C40.847 31.4811 40.8393 28.6713 41.1306 25.8876H40.3681L39.8542 33.0915C39.8314 33.4077 40.298 33.614 40.5054 33.3619C41.0223 32.7339 41.3944 32.0174 41.5911 31.2259L40.8424 31.1251C40.5664 33.6048 40.6914 36.1151 41.1946 38.5582C41.2739 38.9447 41.8244 38.8974 41.9296 38.5582C42.2133 37.6384 42.2606 36.6713 42.2468 35.7148C42.2316 34.6804 42.1904 33.6445 42.1614 32.6102L41.9815 26.3474L41.8809 22.8272C41.8671 22.3246 41.1733 22.349 41.1184 22.8272L40.4307 28.8791C40.3819 29.31 41.0803 29.3925 41.1794 28.98C41.6155 27.1786 41.7955 25.3207 41.7024 23.4689C41.6826 23.0747 41.2099 22.9693 40.9918 23.2764C39.47 25.4246 38.9256 28.1794 39.473 30.7492C39.5127 30.9341 39.7139 31.0472 39.8908 31.0227C40.0936 30.9952 40.1958 30.8394 40.2217 30.6469C40.3697 29.5269 40.9567 28.5048 41.8016 27.7684L41.1504 27.4979C41.2556 30.9204 41.7177 34.3306 42.5259 37.6583L43.2228 37.3634C42.5655 36.3183 42.2697 35.1174 42.0669 33.9119C41.8412 32.5705 41.6735 31.2168 41.4828 29.8692C41.4218 29.4414 40.7204 29.5468 40.7341 29.97C40.8851 34.8699 41.5133 39.756 42.6143 44.5321C42.9285 45.8965 43.2822 47.2533 43.6726 48.5978C43.7885 48.9966 44.458 48.94 44.4214 48.497C44.1332 44.9783 43.8465 41.4611 43.5827 37.9409C43.3204 34.439 43.081 30.9341 42.8873 27.4276C42.7775 25.4414 42.6845 23.4537 42.6082 21.4659H41.8458C42.1187 25.1526 40.5298 28.6102 40.025 32.2038C39.9 33.0991 39.8314 34.0005 39.8771 34.905C39.9274 35.8997 40.1058 36.8852 40.359 37.8462C40.8714 39.7988 41.6491 41.6811 42.3536 43.5711L44.8194 50.1868C44.9688 50.5856 45.5437 50.5306 45.5681 50.0859C45.8334 45.319 45.1716 40.5734 44.519 35.863C43.8663 31.1526 43.2716 26.76 43.4942 22.1702C43.6177 19.6416 44.0112 17.1313 44.7904 14.7204L44.0554 14.5171C43.5293 16.9602 42.3932 19.1924 41.3426 21.4384C40.818 22.5614 40.3102 23.6966 39.9046 24.87C39.4745 26.1106 39.1909 27.391 39.0506 28.6973C38.4742 34.106 40.3422 39.3786 42.2499 44.3427C43.3463 47.1937 44.4763 50.0386 45.2357 53.0027C45.3409 53.4121 46.0118 53.3388 45.9844 52.9018C45.5955 46.6559 44.5327 40.4787 43.973 34.2496C43.4515 28.436 43.4103 22.5369 44.6791 16.8105C45.3622 13.7257 46.4175 10.725 47.9256 7.94578C48.1604 7.51339 47.5276 7.14212 47.2669 7.56076C45.286 10.7403 43.3051 13.9366 41.8656 17.4063C40.5267 20.6332 39.6804 24.0511 39.3083 27.5239C38.9362 30.9967 39.0582 34.5154 39.6621 37.9547C40.2904 41.5375 41.5179 44.9324 43.0535 48.2189C44.7019 51.7483 46.5044 55.2089 48.2458 58.694L48.9199 60.0431C49.1394 60.4831 49.7967 60.0965 49.5786 59.6581L49.5817 59.6565Z" fill="black"/>
<path d="M45.1158 52.3053C43.5131 48.3297 40.9818 44.7331 39.8533 40.5666C39.2388 38.2977 39.2037 35.9632 39.3897 33.6316C39.4873 32.4093 39.6597 31.1947 39.7466 29.9709C39.8335 28.747 39.7405 27.5202 39.6841 26.2872C39.6536 25.6348 39.6398 24.9778 39.7191 24.3269C39.7984 23.676 39.9555 23.0741 40.1522 22.469C40.5487 21.2528 41.119 20.1039 41.703 18.9687C41.9272 18.5317 41.27 18.1451 41.0443 18.5836C39.9753 20.6631 38.9292 22.851 38.8972 25.2375C38.8804 26.4644 39.0436 27.6852 39.0283 28.912C39.0131 30.1389 38.8362 31.4208 38.7112 32.6721C38.4717 35.0755 38.3909 37.5109 38.9002 39.8852C39.3547 41.9967 40.2239 43.9936 41.1754 45.9233C42.2551 48.1112 43.4643 50.2411 44.3777 52.5069C44.4555 52.6979 44.6324 52.8324 44.8474 52.7743C45.0289 52.7239 45.1905 52.4962 45.1143 52.3037L45.1158 52.3053Z" fill="black"/>
<path d="M47.0691 54.7172C47.0858 52.9525 47.0645 51.1879 47.0248 49.4247C46.976 47.304 46.8983 45.1833 46.7687 43.0657C46.6528 41.1727 46.5064 39.2766 46.2212 37.4004C45.8461 34.9313 45.1095 32.5295 44.4981 30.1124C43.8317 27.486 43.272 24.7909 43.4474 22.0667C43.4687 21.7275 43.5038 21.3898 43.548 21.0522L42.7993 21.153C43.5526 25.0246 44.3166 28.8932 45.0577 32.7679C45.5914 35.5593 45.9772 38.4057 46.0108 41.2521C46.0275 42.7296 45.9681 44.2406 45.5457 45.6616L46.2944 45.7624C46.3402 44.2788 46.3173 42.7922 46.238 41.3102C46.1511 39.6906 46.0138 38.0482 45.6433 36.4668C45.4572 35.6754 45.1507 34.9451 44.829 34.1995C44.6185 33.7106 44.4294 33.2125 44.3212 32.69C44.2129 32.1674 44.1763 31.6327 44.155 31.0994C44.0726 28.939 44.0436 26.7679 44.1656 24.6075C44.3013 22.1996 44.6658 19.8131 45.3779 17.506C45.5228 17.0354 44.7878 16.8337 44.6429 17.3028C43.3513 21.4784 43.2507 25.8558 43.365 30.1904C43.394 31.3042 43.4032 32.4424 43.7493 33.5119C44.0345 34.392 44.4965 35.2048 44.7558 36.094C45.1858 37.5623 45.3291 39.1192 45.4328 40.6395C45.5487 42.3415 45.5838 44.0527 45.5304 45.7593C45.5167 46.1978 46.1587 46.2681 46.2792 45.8602C46.6619 44.5752 46.758 43.2047 46.7732 41.8694C46.79 40.34 46.6802 38.8091 46.5109 37.2904C46.148 34.0284 45.4557 30.8198 44.829 27.6021C44.3974 25.3837 43.9659 23.1652 43.5343 20.9467C43.4992 20.7619 43.2903 20.6473 43.1165 20.6733C42.9137 20.7038 42.8115 20.8535 42.7856 21.0491C42.4288 23.7748 42.8588 26.5189 43.484 29.1728C44.1092 31.8267 44.9144 34.3385 45.384 36.9756C45.6921 38.7021 45.8339 40.4928 45.9559 42.2834C46.1007 44.4026 46.1877 46.5248 46.2441 48.6485C46.2929 50.4912 46.3203 52.3368 46.3112 54.181C46.3112 54.3597 46.3097 54.5369 46.3081 54.7157C46.3036 55.2077 47.066 55.2077 47.0706 54.7157L47.0691 54.7172Z" fill="black"/>
<path d="M41.7846 23.021C42.0012 23.021 42.1767 22.8459 42.1767 22.6299C42.1767 22.4139 42.0012 22.2388 41.7846 22.2388C41.5681 22.2388 41.3926 22.4139 41.3926 22.6299C41.3926 22.8459 41.5681 23.021 41.7846 23.021Z" fill="black"/>
<path d="M40.772 25.7539C40.9826 25.7539 41.1534 25.6136 41.1534 25.4407C41.1534 25.2677 40.9826 25.1274 40.772 25.1274C40.5614 25.1274 40.3906 25.2677 40.3906 25.4407C40.3906 25.6136 40.5614 25.7539 40.772 25.7539Z" fill="black"/>
<path d="M40.1935 29.3322C40.3856 29.3322 40.5414 28.7774 40.5414 28.0931C40.5414 27.4088 40.3856 26.854 40.1935 26.854C40.0014 26.854 39.8457 27.4088 39.8457 28.0931C39.8457 28.7774 40.0014 29.3322 40.1935 29.3322Z" fill="black"/>
<path d="M40.061 32.1051C40.2641 32.1051 40.4287 31.7624 40.4287 31.3397C40.4287 30.9169 40.2641 30.5742 40.061 30.5742C39.858 30.5742 39.6934 30.9169 39.6934 31.3397C39.6934 31.7624 39.858 32.1051 40.061 32.1051Z" fill="black"/>
<path d="M42.6012 33.4305C43.1118 33.4305 43.5257 31.7115 43.5257 29.591C43.5257 27.4705 43.1118 25.7515 42.6012 25.7515C42.0907 25.7515 41.6768 27.4705 41.6768 29.591C41.6768 31.7115 42.0907 33.4305 42.6012 33.4305Z" fill="black"/>
<path d="M43.1645 43.7897C43.6798 43.6853 43.7915 42.084 43.4139 40.2131C43.0364 38.3423 42.3126 36.9102 41.7973 37.0146C41.282 37.119 41.1703 38.7203 41.5478 40.5912C41.9254 42.4621 42.6491 43.8941 43.1645 43.7897Z" fill="black"/>
<path d="M45.4636 53.8413C45.7105 53.8413 45.9106 53.669 45.9106 53.4563C45.9106 53.2437 45.7105 53.0713 45.4636 53.0713C45.2167 53.0713 45.0166 53.2437 45.0166 53.4563C45.0166 53.669 45.2167 53.8413 45.4636 53.8413Z" fill="black"/>
<path d="M38.6377 40.0446C38.7246 40.9751 39.0479 41.8735 39.3209 42.7612C39.5938 43.6489 39.8637 44.477 40.1962 45.3142C40.5286 46.1515 40.9418 47.0148 41.4054 47.823C41.869 48.6313 42.2548 49.3753 42.6436 50.1729C43.066 51.0392 43.5006 51.9009 44.0832 52.6725C44.2067 52.8375 44.4125 52.923 44.6047 52.81C44.7663 52.7152 44.867 52.4525 44.7419 52.2874C43.7157 50.9261 43.127 49.2959 42.2868 47.823C41.8476 47.056 41.4237 46.2875 41.0806 45.4716C40.7375 44.6557 40.4447 43.7894 40.1748 42.9308C40.0299 42.4678 39.8897 42.0018 39.7509 41.5358C39.6045 41.0469 39.4505 40.5534 39.4032 40.0431C39.3849 39.8384 39.2416 39.6611 39.022 39.6611C38.8298 39.6611 38.6209 39.8368 38.6407 40.0431L38.6377 40.0446Z" fill="black"/>
<path d="M46.4658 47.3122L46.0326 42.7729C45.8877 41.2634 45.7519 39.7539 45.5368 38.2535C45.4178 37.4239 45.2729 36.5973 45.0959 35.7768C44.9922 35.2971 44.2568 35.5003 44.3606 35.98C44.9861 38.8708 45.1798 41.8379 45.462 44.7775L45.7046 47.3122C45.7244 47.517 45.8663 47.6942 46.086 47.6942C46.2767 47.6942 46.4872 47.5185 46.4674 47.3122H46.4658Z" fill="black"/>
<path d="M44.9427 34.4137C44.7688 33.5657 44.8146 32.7254 44.8649 31.8682C44.9152 31.0111 44.9275 30.1738 44.6117 29.387C44.5354 29.196 44.3569 29.0615 44.1418 29.1196C43.9603 29.17 43.7985 29.3961 43.8748 29.5902C44.1845 30.3633 44.1433 31.1883 44.093 32.0042C44.0381 32.8873 44.0274 33.746 44.2059 34.6169C44.2471 34.8186 44.485 34.9362 44.6757 34.8843C44.8847 34.8262 44.9839 34.6169 44.9427 34.4137Z" fill="black"/>
<path d="M46.2411 56.7239C46.3861 56.8415 46.5356 56.9531 46.6942 57.0524C46.7385 57.0799 46.7858 57.0952 46.8361 57.0982C46.8864 57.1089 46.9368 57.1074 46.9887 57.0921C47.039 57.0799 47.0817 57.057 47.1183 57.0234C47.1595 56.9959 47.1931 56.9607 47.216 56.9164L47.2541 56.8247C47.2724 56.7575 47.2724 56.6888 47.2541 56.6215L47.216 56.5299C47.1824 56.4718 47.1366 56.4275 47.0787 56.3923C46.9703 56.3236 46.8651 56.2503 46.7644 56.1723L46.8422 56.2319C46.8224 56.2166 46.801 56.1998 46.7812 56.183C46.7461 56.1464 46.7064 56.1189 46.6591 56.1036C46.6134 56.0791 46.5645 56.0684 46.5127 56.07C46.4608 56.0684 46.4105 56.0791 46.3662 56.1036C46.3189 56.1189 46.2777 56.1448 46.2442 56.183L46.1847 56.261C46.1496 56.3205 46.1328 56.3847 46.1328 56.4535L46.1465 56.5543C46.1648 56.6185 46.1969 56.675 46.2442 56.7224L46.2411 56.7239Z" fill="black"/>
<path d="M13.465 1.97554C10.7522 1.88539 8.01041 2.31778 5.47448 3.29103C4.39179 3.70661 3.31215 4.24289 2.74183 5.31393C2.17152 6.38497 2.13797 7.55379 2.27826 8.68441C2.83333 13.187 6.31623 16.4002 8.84607 19.8929C10.3344 21.9478 11.4598 24.2228 12.5928 26.4871C13.738 28.7774 14.9457 31.0066 16.4676 33.0723C17.9895 35.1379 19.6638 37.0386 21.2146 39.0585C22.7655 41.0783 24.1242 43.3212 25.1977 45.7001C26.2713 48.079 27.1816 50.5648 28.3985 52.8933C29.6154 55.2218 31.1525 57.4479 32.7369 59.5823C36.0963 64.1109 39.5533 68.5693 42.9645 73.0581L45.6133 76.5447C46.3178 77.4706 46.9964 78.4378 47.8259 79.2582C48.6555 80.0787 49.5994 80.7128 50.7187 80.9206C51.7938 81.1207 52.8444 80.9313 53.8249 80.4653C55.8805 79.4905 57.2987 77.5042 58.572 75.6952C60.1503 73.4508 61.727 71.2064 63.2809 68.9451C66.3857 64.4257 69.3989 59.8375 72.1315 55.0812C74.8062 50.4258 77.1348 45.5488 80.2883 41.1853C83.4296 36.84 87.2343 33.0249 90.4015 28.6964C93.5444 24.4001 96.2084 19.7783 98.7718 15.1183C99.4244 13.9311 100.077 12.7424 100.718 11.5492C101.305 10.4537 101.837 9.32459 101.974 8.07479C102.204 5.97703 101.088 3.96024 99.519 2.64169C95.237 -0.954918 89.5659 0.818938 84.6496 1.70969C79.1599 2.70433 73.5665 3.07255 67.9914 2.99462C62.3568 2.91518 56.7756 2.26889 51.1792 1.67607C45.5828 1.08326 39.8247 0.693653 34.1169 1.19785C28.4092 1.70205 22.9622 2.62946 17.3185 2.5271C14.4761 2.47515 11.6412 2.25972 8.80032 2.16346C6.70204 2.09318 4.1966 1.83803 2.30876 2.98087C1.40601 3.52785 0.803668 4.40179 0.687774 5.45908C0.556632 6.66304 1.01716 7.94034 1.37856 9.07096C2.10442 11.3414 3.10019 13.5232 4.25912 15.6026C6.59529 19.7951 9.57345 23.5781 12.4769 27.381C15.6243 31.5016 18.4957 35.7751 21.2543 40.1646C24.0861 44.6719 26.988 49.095 30.2376 53.3135C33.3774 57.3898 36.6514 61.3867 39.3169 65.8023C40.6405 67.9963 41.6714 70.3263 42.8684 72.586C43.9953 74.7174 45.4013 76.7235 47.4218 78.0909C49.4423 79.4584 51.7145 79.8526 53.9591 79.1574C56.2038 78.4622 58.1389 76.7724 59.5754 74.8503C61.1079 72.7984 62.2257 70.4546 63.4914 68.2362C64.757 66.0147 66.0776 63.8252 67.4333 61.6587C70.1202 57.3684 72.9519 53.1729 75.8218 49.0034C81.5875 40.6261 87.5179 32.3481 92.7316 23.6071C95.3102 19.2848 97.8187 14.8433 99.827 10.2214C100.321 9.08624 100.667 7.85019 100.252 6.63095C99.9277 5.67451 99.2445 4.93807 98.4363 4.36054C96.5866 3.04046 94.1223 2.60502 91.9432 2.18638C81.1499 0.11459 70.1583 1.83956 59.2811 1.83497C53.706 1.83344 48.2148 1.10007 42.6809 0.517948C39.8948 0.227653 37.1027 0 34.3045 0C31.5063 0 28.6959 0.244459 25.9053 0.524059C23.1147 0.803659 20.1914 1.13521 17.3231 1.27272C15.9567 1.33841 14.5874 1.36133 13.2195 1.3155C11.8517 1.26966 10.493 1.15354 9.12817 1.15201C6.65476 1.15049 4.16305 1.57523 2.23251 3.22992C0.600854 4.62944 -0.466586 6.87694 0.202852 9.02513C0.611529 10.333 1.50513 11.4682 2.24471 12.6003L4.54581 16.119L9.25779 23.3245L18.7916 37.9034L27.8877 51.8131C28.4229 52.632 29.745 51.8681 29.2037 51.0415C23.0857 41.6849 16.9662 32.3282 10.8483 22.9715L6.30098 16.0167L3.99989 12.498C3.27708 11.3933 2.42008 10.2978 1.86196 9.09694C0.954634 7.14585 2.11052 5.09544 3.7559 3.9694C5.80691 2.56835 8.41909 2.61571 10.798 2.72725C13.4376 2.851 16.0482 2.89684 18.6879 2.72114C21.3275 2.54543 24.1501 2.21847 26.8797 1.95567C29.6078 1.69288 32.3419 1.49273 35.0853 1.53245C37.8286 1.57218 40.5429 1.81511 43.2588 2.10999C48.596 2.68905 53.8981 3.36437 59.2765 3.3659C64.6549 3.36742 69.9219 2.96254 75.2454 2.78225C80.5689 2.60196 85.7322 2.62946 90.888 3.54313C92.1537 3.76773 93.4102 4.04274 94.6499 4.37735C95.5832 4.62944 96.4981 4.94571 97.3246 5.45755C98.0261 5.89299 98.6849 6.5072 98.8679 7.34447C99.124 8.51787 98.3875 9.73559 97.9041 10.7562C93.7106 19.6255 88.4298 27.9188 82.9264 36.018C77.4016 44.1493 71.6329 52.1172 66.3948 60.4395C65.0803 62.5281 63.7994 64.6396 62.5658 66.7771C61.3321 68.9176 60.2357 71.1575 58.8648 73.214C57.5991 75.1131 55.9186 76.8946 53.7014 77.6356C51.597 78.3385 49.4835 77.8052 47.7588 76.4622C45.903 75.0169 44.7258 72.9344 43.6934 70.8611C42.5787 68.6243 41.4945 66.3997 40.1678 64.2775C37.5267 60.056 34.364 56.2012 31.3355 52.2593C28.2018 48.1829 25.4036 43.9049 22.6694 39.552C19.9673 35.251 17.1751 31.0463 14.0963 27.0066C11.3088 23.3489 8.43891 19.7279 6.10427 15.7554C4.94991 13.7906 3.92822 11.7432 3.16271 9.59502C2.77691 8.51329 2.33011 7.3353 2.20506 6.18787C2.09984 5.2192 2.53292 4.52249 3.4006 4.12219C4.1905 3.75856 5.10393 3.66383 5.96398 3.64397C7.30285 3.61494 8.64783 3.67605 9.9867 3.73411C12.727 3.85329 15.4642 4.04733 18.2075 4.06108C23.6759 4.09011 29.068 3.14436 34.5043 2.68752C45.4608 1.76927 56.2785 4.26734 67.2106 4.50569C72.6637 4.62486 78.129 4.30859 83.5181 3.44229C86.1821 3.01449 88.8172 2.27805 91.5086 2.03971C93.7929 1.8365 96.091 2.05651 98.0154 3.39645C99.5464 4.46138 100.765 6.27649 100.423 8.21383C100.21 9.42696 99.5464 10.5072 98.967 11.5721C98.3463 12.7149 97.7242 13.8562 97.0944 14.9945C94.5981 19.514 91.9859 23.986 88.9193 28.1449C85.8466 32.3114 82.1914 36.0058 79.1355 40.1845C76.0521 44.3999 73.7632 49.1103 71.1937 53.6404C68.5815 58.2454 65.6994 62.6915 62.7198 67.0643C61.2101 69.2782 59.676 71.4753 58.1343 73.6678C56.8702 75.4676 55.632 77.5363 53.7426 78.7556C52.9634 79.2582 52.0621 79.5944 51.1228 79.4431C50.0904 79.2766 49.27 78.586 48.5838 77.8404C47.7848 76.9725 47.1016 75.9947 46.3879 75.0566L43.9191 71.8083C40.5902 67.4279 37.2125 63.0812 33.9416 58.658C32.3984 56.5709 30.9177 54.4242 29.7145 52.1172C28.5419 49.8681 27.6559 47.4877 26.6266 45.173C25.6125 42.8949 24.3941 40.7681 22.9027 38.7712C21.4312 36.8003 19.8102 34.947 18.3127 32.9959C16.8153 31.0448 15.5252 28.8981 14.3952 26.6705C13.2653 24.4429 12.2009 22.1541 10.8193 20.0579C9.62225 18.2443 8.17968 16.6156 6.86978 14.886C5.63612 13.2573 4.46041 11.5003 3.96787 9.4896C3.74218 8.56676 3.61714 7.52934 3.86722 6.6004C4.14933 5.54464 5.01396 5.08628 5.9716 4.72417C8.37029 3.81815 10.9093 3.41173 13.4696 3.49577C14.4517 3.52785 14.4501 1.99998 13.4696 1.9679L13.465 1.97554Z" fill="black"/>
<path d="M36.2042 57.7074C37.9807 61.4981 39.7389 65.2979 41.5337 69.0809C42.3465 70.7936 43.231 72.4743 44.4662 73.9227C45.6297 75.2871 47.089 76.3994 48.6459 77.2779C49.448 77.7302 50.2837 78.1274 51.1407 78.4651C52.045 78.8226 52.998 79.0777 53.9725 79.1236C54.9469 79.1694 55.9213 78.957 56.7524 78.4574C57.4599 78.0327 58.0409 77.4383 58.5442 76.7905C59.0474 76.1427 59.5247 75.3971 60.0172 74.7004C60.1407 74.5262 60.2658 74.3536 60.3939 74.184C60.461 74.0938 60.5296 74.0052 60.5982 73.9166C60.4961 74.0495 60.6333 73.8723 60.644 73.8585C60.6851 73.8051 60.7278 73.7516 60.769 73.6996C61.0603 73.3284 61.3576 72.9617 61.6504 72.5904C62.2451 71.8372 62.8307 71.0717 63.3202 70.2436C63.7578 69.501 64.1055 68.7066 64.3998 67.8968C64.9564 66.3582 65.2919 64.7509 65.7006 63.1696C65.9003 62.3965 66.1184 61.6279 66.3914 60.8778C66.4569 60.6975 66.5256 60.5187 66.5988 60.3399C66.6125 60.3063 66.6781 60.1245 66.611 60.3109C66.6232 60.2758 66.6415 60.2406 66.6567 60.2055C66.7025 60.1001 66.7497 59.9962 66.7985 59.8923C66.9693 59.5302 67.1584 59.1772 67.3704 58.8365C67.4664 58.6822 67.5671 58.5309 67.6723 58.3827C67.7272 58.3048 67.7851 58.2269 67.8431 58.1505C67.9148 58.0542 67.7272 58.2911 67.8477 58.1444C67.8843 58.1001 67.9209 58.0542 67.9575 58.0084C68.2106 57.7013 68.2807 57.2246 67.9575 56.9282C67.6769 56.67 67.1508 56.5997 66.8793 56.9282C64.7475 59.5103 64.2916 62.8518 63.4102 65.9747C63.3034 66.3521 63.1891 66.728 63.064 67.1008C63.0015 67.2856 62.9359 67.4705 62.8688 67.6538C62.8353 67.7455 62.8002 67.8357 62.7636 67.9273C62.7499 67.964 62.7346 67.9991 62.7209 68.0358C62.7057 68.0725 62.6919 68.1076 62.6767 68.1443C62.7118 68.0603 62.7194 68.045 62.6965 68.0969C62.3565 68.8792 61.9447 69.6172 61.4598 70.3185C61.3332 70.5033 61.2021 70.6836 61.0679 70.8639C61.0008 70.954 60.9337 71.0427 60.8651 71.1328C60.8376 71.168 60.8102 71.2046 60.7827 71.2398C60.8803 71.1129 60.7355 71.2993 60.7156 71.3253C60.432 71.689 60.1423 72.0465 59.8556 72.4071C59.2959 73.1129 58.7577 73.831 58.2529 74.5782C58.0242 74.9173 57.7954 75.2565 57.5545 75.5865C57.5026 75.6568 57.4508 75.7256 57.3974 75.7959C57.3258 75.8921 57.5118 75.6538 57.3929 75.802C57.3624 75.8386 57.3334 75.8768 57.3029 75.915C57.1763 76.0709 57.0452 76.2221 56.9079 76.3673C56.7783 76.5048 56.6441 76.6362 56.5023 76.76C56.4322 76.8211 56.3635 76.8868 56.2873 76.9387C56.3056 76.925 56.42 76.8425 56.3071 76.9204C56.2614 76.9525 56.2156 76.9861 56.1699 77.0166C56.0143 77.1221 55.8512 77.2168 55.6834 77.2993C55.6407 77.3207 55.5965 77.339 55.5538 77.3589C55.4486 77.4078 55.7231 77.2993 55.5264 77.368C55.4028 77.4108 55.2793 77.4536 55.1528 77.4872C55.0582 77.5117 54.9637 77.5331 54.8676 77.5514C54.8142 77.5621 54.7608 77.5697 54.7075 77.5789C54.8737 77.5529 54.7273 77.5743 54.6846 77.5789C54.4574 77.6003 54.2287 77.6064 54.0014 77.5957C53.8916 77.5911 53.7819 77.5835 53.6736 77.5728C53.6294 77.5682 53.5867 77.5636 53.5424 77.559C53.7285 77.5789 53.5074 77.5529 53.4814 77.5499C53.2603 77.5147 53.0423 77.4674 52.8257 77.4124C52.3667 77.2962 51.9184 77.1419 51.4792 76.9662C51.4381 76.9494 51.3969 76.9326 51.3542 76.9158C51.1544 76.8348 51.4411 76.9555 51.3206 76.902C51.2322 76.8638 51.1438 76.8257 51.0553 76.7859C50.8433 76.6912 50.6329 76.5919 50.424 76.4895C49.6539 76.1137 48.9067 75.6874 48.1976 75.2061C48.0314 75.093 47.8682 74.9785 47.7066 74.8593C47.6212 74.7966 47.5373 74.7325 47.4535 74.6698C47.5953 74.7783 47.4275 74.6484 47.4077 74.6332C47.3589 74.5934 47.3086 74.5537 47.2598 74.514C46.9335 74.2481 46.6193 73.967 46.3174 73.6721C46.0155 73.3773 45.7151 73.0518 45.439 72.7203C45.375 72.6439 45.314 72.566 45.2515 72.488C45.1097 72.3139 45.3399 72.6072 45.2042 72.4284C45.1768 72.3918 45.1493 72.3566 45.1234 72.32C44.9755 72.1198 44.8337 71.9166 44.6949 71.7103C44.1871 70.9464 43.7479 70.1397 43.3377 69.3208C42.4456 67.5377 41.6298 65.715 40.785 63.9106L38.1652 58.317L37.5186 56.9358C37.3494 56.5737 36.8004 56.4515 36.4756 56.6624C36.1035 56.9038 36.0197 57.3193 36.2026 57.7074H36.2042Z" fill="black"/>
<path d="M71.3145 55.2983C73.5104 54.3663 75.0979 52.4197 76.1882 50.351C77.4691 47.9217 78.2377 45.2617 79.4271 42.7881C80.6257 40.2946 82.1155 38.0012 83.7365 35.7675C84.5401 34.6598 85.3285 33.5414 86.004 32.3481C86.6796 31.1549 87.256 29.9494 87.927 28.7729C88.5979 27.5965 89.397 26.4949 90.283 25.4544C91.1506 24.4353 92.0564 23.4468 92.8768 22.3879C94.446 20.362 95.765 18.1481 96.7928 15.7998C97.3067 14.6248 97.755 13.4209 98.1225 12.1909C98.4946 10.9473 98.8835 9.62718 98.9643 8.32696C99.1259 5.74486 96.8889 4.1406 94.7189 3.33694C92.3675 2.46758 89.8072 2.43091 87.3338 2.53481C84.8604 2.6387 82.2146 2.91219 79.6619 2.6662C79.0535 2.60815 78.4496 2.51342 77.8519 2.38355C77.373 2.27965 77.1687 3.01609 77.649 3.11998C80.0981 3.65474 82.6142 3.55542 85.0998 3.41639C87.5854 3.27735 90.0329 3.07873 92.4544 3.51723C93.6225 3.7296 94.7799 4.08865 95.8199 4.66924C96.7364 5.18108 97.6483 5.92668 98.025 6.94118C98.4702 8.14056 98.0463 9.50953 97.7459 10.6967C97.4394 11.9083 97.0597 13.1016 96.6083 14.2673C95.7071 16.5943 94.5131 18.8097 93.0751 20.8479C91.5715 22.9808 89.6532 24.7791 88.1755 26.9288C87.4192 28.0319 86.8062 29.2236 86.1855 30.4062C85.5649 31.5888 84.9076 32.7683 84.1467 33.8806C83.3812 35.0005 82.5532 36.0761 81.7861 37.1945C81.0191 38.3129 80.3283 39.4405 79.6879 40.6154C79.0459 41.7919 78.4664 43.0004 77.9464 44.2365C77.4264 45.4725 76.972 46.7361 76.4566 47.9752C75.5492 50.1585 74.3628 52.3907 72.4049 53.8071C71.9459 54.1386 71.4533 54.4167 70.9318 54.6382C70.7412 54.7192 70.7031 54.9988 70.7945 55.1607C70.9074 55.3594 71.127 55.3777 71.3161 55.2983H71.3145Z" fill="black"/>
<path d="M7.77121 16.6526C7.31984 15.9162 6.91116 15.1538 6.54976 14.3685C6.46436 14.1836 6.38202 13.9972 6.30272 13.8108C6.34847 13.9162 6.29815 13.7986 6.29052 13.7818C6.2707 13.7344 6.2524 13.687 6.23258 13.6412C6.1853 13.5236 6.13803 13.4059 6.09228 13.2867C5.93674 12.8834 5.7934 12.4754 5.66226 12.0644C5.40302 11.2531 5.19258 10.4266 5.02942 9.59083C4.9913 9.39068 4.9547 9.19053 4.92115 8.99037C4.90438 8.88953 4.88913 8.79022 4.87388 8.68938C4.86625 8.63896 4.85863 8.58854 4.851 8.53813C4.8449 8.49229 4.82661 8.367 4.84185 8.47701C4.78543 8.04921 4.74274 7.61835 4.71224 7.18749C4.68174 6.75663 4.66039 6.33799 4.67716 5.91172C4.68326 5.76199 4.67869 5.85977 4.67411 5.89644C4.68174 5.84907 4.69089 5.80018 4.70004 5.75282C4.70614 5.72379 4.79153 5.46558 4.73664 5.59087C4.77018 5.51447 4.81593 5.44266 4.85863 5.37238C4.9303 5.25473 4.87235 5.35557 4.851 5.37849C4.89218 5.33266 4.93335 5.28529 4.97757 5.24098C5.01264 5.20584 5.19106 5.06222 5.06144 5.15695C5.13006 5.10653 5.20021 5.05917 5.27188 5.01333C5.4381 4.91096 5.61194 4.82693 5.7873 4.74443C5.81475 4.73067 5.92149 4.68484 5.78273 4.74443C5.82237 4.72762 5.86202 4.71234 5.90015 4.69553C5.99621 4.65734 6.09381 4.61914 6.18988 4.58247C6.40794 4.49997 6.62753 4.42052 6.84864 4.34718C7.66905 4.07216 8.50927 3.85826 9.35865 3.69631C9.56146 3.65811 9.7658 3.62144 9.96862 3.58936C10.0708 3.57255 10.173 3.55727 10.2751 3.54199C10.327 3.53435 10.3773 3.52824 10.4291 3.5206C10.484 3.51296 10.481 3.51296 10.4185 3.5206C10.4566 3.51602 10.4962 3.50991 10.5344 3.50532C10.9583 3.45185 11.3853 3.40907 11.8122 3.37698C15.437 3.10349 19.0541 3.56033 22.6468 3.99424C24.5376 4.22189 26.4331 4.44344 28.3362 4.5458C30.2393 4.64817 32.1043 4.59011 33.9875 4.43732C35.8708 4.28454 37.8288 4.09661 39.7517 3.96827C41.6746 3.83993 43.5503 3.74978 45.4519 3.6902C45.9337 3.67492 46.4171 3.66269 46.899 3.652C47.297 3.64283 47.6797 3.3067 47.6614 2.88806C47.6432 2.46943 47.326 2.11496 46.899 2.12413C42.9815 2.21275 39.0731 2.45873 35.1709 2.80861C33.2159 2.98279 31.264 3.1203 29.3 3.06071C27.3359 3.00113 25.4434 2.79945 23.5251 2.57332C19.8318 2.13788 16.1247 1.61077 12.3963 1.81397C10.5618 1.91328 8.72276 2.17913 6.96149 2.71083C6.15023 2.95529 5.29018 3.22725 4.55822 3.66269C4.16174 3.89799 3.82169 4.19745 3.5594 4.57636C3.27424 4.98736 3.17207 5.49614 3.14615 5.98658C3.10345 6.83608 3.21325 7.7146 3.32456 8.55493C3.44656 9.48082 3.61735 10.3975 3.85066 11.3005C4.29899 13.0362 4.9608 14.7229 5.8056 16.3028C6.00994 16.6832 6.22495 17.0575 6.45064 17.4273C6.65955 17.768 7.14295 17.9284 7.49368 17.7008C7.84441 17.4731 7.9908 17.0193 7.76664 16.6557L7.77121 16.6526Z" fill="black"/>
<path d="M60.255 4.30145C63.0425 4.36256 65.8316 4.3534 68.6176 4.27089C71.3914 4.18992 74.1637 4.0356 76.9299 3.81253C78.5021 3.68572 80.0712 3.53446 81.6389 3.36181C81.8432 3.33889 82.0201 3.20291 82.0201 2.97984C82.0201 2.79039 81.8447 2.57496 81.6389 2.59787C78.8681 2.90345 76.0882 3.13874 73.3052 3.30222C70.5222 3.4657 67.7606 3.55585 64.9853 3.57418C63.4085 3.58488 61.8317 3.57418 60.255 3.53751C59.764 3.52682 59.764 4.29075 60.255 4.30145Z" fill="black"/>
<path d="M62.2587 5.69744C65.6958 6.21691 69.1147 5.6409 72.5107 5.08629C73.3372 4.95184 74.1652 4.81738 74.9963 4.70585C74.8636 4.72418 74.9887 4.70585 75.0131 4.70432C75.0741 4.69668 75.135 4.68904 75.196 4.6814C75.2936 4.66918 75.3912 4.65696 75.4888 4.64473C75.7069 4.61876 75.9234 4.59431 76.1415 4.5714C76.5502 4.52862 76.9588 4.49347 77.369 4.46139C79.0221 4.33305 80.6796 4.27193 82.3326 4.1497C84.2235 4.00914 86.1205 3.78913 87.9596 3.31396C88.3454 3.21465 88.6168 2.7624 88.4918 2.37432C88.3667 1.98624 87.9672 1.73414 87.554 1.84109C86.761 2.04583 85.9574 2.20473 85.1476 2.32696C85.0531 2.34071 84.957 2.35446 84.8625 2.36821C84.8152 2.37432 84.7679 2.38196 84.7191 2.38807C84.8579 2.36974 84.7329 2.38654 84.7069 2.38807C84.4919 2.41557 84.2769 2.44155 84.0619 2.46446C83.6547 2.50877 83.2461 2.54697 82.8374 2.58211C81.2103 2.71656 79.5771 2.77768 77.9485 2.89074C76.3199 3.0038 74.583 3.2177 72.9117 3.48355C72.0837 3.61495 71.2557 3.75551 70.4276 3.88538C70.0144 3.95108 69.5996 4.01372 69.1864 4.07178C69.1376 4.07789 69.0888 4.08553 69.04 4.09165C69.0156 4.0947 68.8905 4.11151 69.0232 4.0947C68.9256 4.10845 68.828 4.12067 68.7304 4.1329C68.5123 4.1604 68.2928 4.18637 68.0732 4.21082C67.1643 4.31166 66.2524 4.37888 65.3375 4.38805C64.8754 4.39264 64.4149 4.38194 63.9544 4.35444C63.7241 4.34069 63.4939 4.32235 63.2636 4.29791C63.1416 4.28568 63.0211 4.27193 62.9007 4.25665C62.8763 4.2536 62.7512 4.23679 62.8854 4.25665C62.8122 4.24596 62.7405 4.23526 62.6674 4.22457C62.2739 4.16498 61.8286 4.32235 61.7295 4.7578C61.6472 5.12143 61.8408 5.63327 62.2617 5.69744H62.2587Z" fill="black"/>
<path d="M79.7462 40.3802C79.644 38.4536 81.6919 37.3214 82.8295 36.0915C83.9671 34.8616 84.8211 33.3367 85.5942 31.8257C86.3734 30.3024 87.1084 28.744 88.1134 27.3536C89.254 25.7738 90.7545 24.4904 92.0553 23.0511C93.5405 21.4071 94.8825 19.6302 96.0597 17.7525C96.322 17.3354 95.6617 16.9519 95.4009 17.3674C94.3503 19.0435 93.1685 20.6356 91.8631 22.1222C90.5486 23.618 89.0283 24.935 87.8023 26.5072C86.7257 27.8884 85.9434 29.4514 85.155 31.0083C84.3666 32.5652 83.6072 34.0503 82.4895 35.3306C81.1735 36.8371 78.8602 38.0823 78.9822 40.3833C79.0081 40.8722 79.7706 40.8752 79.7446 40.3833L79.7462 40.3802Z" fill="black"/>
<path d="M23.4858 40.5876C23.2312 39.8557 23.0238 39.1071 22.8667 38.3477C22.789 37.9749 22.7234 37.5991 22.6685 37.2217C22.6624 37.1758 22.6548 37.13 22.6487 37.0842C22.67 37.2308 22.6517 37.1101 22.6487 37.0811C22.638 36.9894 22.6258 36.8978 22.6151 36.8061C22.5922 36.5998 22.5709 36.392 22.5541 36.1843C22.4275 34.6426 22.4733 33.0903 22.6517 31.5548C22.6624 31.4616 22.6731 31.3699 22.6853 31.2767C22.6883 31.2554 22.7066 31.1087 22.6944 31.2049C22.6822 31.3012 22.702 31.1545 22.7051 31.1331C22.7325 30.9376 22.7615 30.7405 22.7935 30.5449C22.8561 30.1538 22.9277 29.7657 23.007 29.3776C23.1641 28.6091 23.3516 27.8482 23.5621 27.0934C23.9921 25.5533 24.5228 24.0423 25.1099 22.5541C25.273 22.1431 25.4393 21.7337 25.61 21.3242C25.6283 21.2799 25.6466 21.2356 25.6649 21.1913C25.6863 21.1409 25.6832 21.147 25.6573 21.2081L25.6848 21.1424C25.732 21.0324 25.7778 20.9224 25.8251 20.8124C25.9105 20.6137 25.9958 20.4166 26.0812 20.2195C26.4457 19.3869 26.8208 18.5588 27.2005 17.7337C27.3667 17.3716 27.3149 16.8934 26.9276 16.6886C26.5921 16.5114 26.0629 16.5756 25.8845 16.9621C24.5106 19.9491 23.1824 22.9758 22.2476 26.1355C21.3372 29.2126 20.8081 32.4471 20.9911 35.6617C21.0948 37.4722 21.415 39.2782 22.0112 40.9925C22.1424 41.3683 22.5389 41.6586 22.9491 41.5257C23.3212 41.405 23.6216 40.9894 23.4813 40.5861L23.4858 40.5876Z" fill="black"/>
<path d="M82.9769 36.9223C83.317 33.972 83.3536 30.985 82.9693 28.0377C82.5774 25.0324 81.7768 22.1279 80.5843 19.3411C79.3919 16.5542 77.8746 13.8958 75.8068 11.6987C73.7116 9.47257 71.0689 7.85761 68.4796 6.27779C65.846 4.67047 63.1149 3.18691 60.181 2.20144C59.8196 2.08074 59.4551 1.96767 59.0891 1.86225C58.7232 1.75683 58.2413 1.9967 58.1513 2.39548C58.0614 2.79425 58.2733 3.21747 58.6835 3.33512C59.414 3.54443 60.1352 3.78737 60.8458 4.05933C61.006 4.12044 61.1661 4.18461 61.3262 4.24878C61.4116 4.2824 61.4955 4.31754 61.5809 4.35268C61.6236 4.36948 61.6647 4.38782 61.7074 4.40615C61.7882 4.43977 61.6159 4.36643 61.7471 4.42296C62.0932 4.57269 62.4379 4.72701 62.781 4.88743C64.1427 5.52914 65.4633 6.2564 66.7579 7.02339C68.0358 7.77969 69.3046 8.55585 70.5428 9.37479C71.1573 9.7812 71.7627 10.2029 72.3498 10.649C72.3864 10.6765 72.4215 10.704 72.4581 10.7315C72.5526 10.8033 72.3712 10.6628 72.4642 10.7361C72.5358 10.7926 72.606 10.8477 72.6777 10.9042C72.8286 11.0234 72.9765 11.1456 73.1245 11.2693C73.402 11.5016 73.6734 11.7415 73.9372 11.989C74.4771 12.4947 74.9849 13.034 75.4591 13.6024C75.5735 13.7399 75.6848 13.8774 75.7946 14.018C75.8159 14.044 75.8358 14.0715 75.8556 14.0974C75.9288 14.1891 75.7885 14.0073 75.8586 14.102C75.9181 14.1815 75.9791 14.2624 76.0401 14.3419C76.2597 14.6383 76.4701 14.9393 76.6745 15.2449C77.4918 16.4717 78.1963 17.775 78.82 19.1104C78.974 19.4404 79.1235 19.775 79.2668 20.1096C79.2851 20.1509 79.3019 20.1936 79.3202 20.2349C79.2653 20.105 79.311 20.215 79.3217 20.241C79.3568 20.325 79.3903 20.4075 79.4254 20.4916C79.4971 20.6688 79.5672 20.846 79.6358 21.0248C79.8966 21.7001 80.133 22.3831 80.3465 23.0737C80.7658 24.435 81.0921 25.8254 81.3224 27.2325C81.3498 27.4052 81.3773 27.5778 81.4032 27.7505C81.4154 27.8376 81.4276 27.9231 81.4398 28.0102C81.4612 28.1584 81.4429 28.0301 81.4398 28.0026C81.4474 28.056 81.4535 28.1111 81.4612 28.1661C81.5069 28.5251 81.545 28.8842 81.5786 29.2447C81.6442 29.9582 81.6869 30.6748 81.7082 31.3899C81.7509 32.8658 81.6975 34.3448 81.5664 35.8161C81.5328 36.1843 81.4947 36.5525 81.452 36.9207C81.4063 37.3195 81.8348 37.7015 82.2145 37.6847C82.6674 37.6648 82.9281 37.347 82.9769 36.9207V36.9223Z" fill="black"/>
<path d="M33.9089 58.215C34.8604 59.0736 35.937 59.7734 37.0441 60.409C38.1512 61.0446 39.2598 61.6649 40.402 62.2195C41.6066 62.8047 42.854 63.2814 44.1685 63.5457C45.483 63.81 46.8447 63.9155 48.1927 63.9475C50.9269 64.0132 53.6504 63.8391 56.3709 63.5809C57.754 63.4495 59.1538 63.3379 60.5049 62.9987C61.6669 62.7069 62.7877 62.2317 63.8338 61.6496C65.9001 60.4961 67.6995 58.9117 69.4287 57.3105C69.6391 57.1149 69.8496 56.9193 70.06 56.7222C70.3528 56.4488 70.3559 55.914 70.06 55.642C69.7474 55.3533 69.293 55.3502 68.9819 55.642C68.1462 56.4228 67.306 57.202 66.4323 57.9415C66.2111 58.1279 65.9885 58.3128 65.7628 58.493C65.6622 58.5725 65.5615 58.6519 65.4609 58.7314C65.4365 58.7497 65.3465 58.8185 65.4639 58.7299C65.438 58.7497 65.4136 58.7681 65.3877 58.7879C65.3282 58.8338 65.2687 58.8781 65.2093 58.9224C64.7518 59.2646 64.2806 59.5916 63.7957 59.8956C63.3107 60.1997 62.838 60.4655 62.3379 60.7085C62.2159 60.768 62.0923 60.8261 61.9673 60.8826C61.9093 60.9086 61.8529 60.9331 61.795 60.959C61.7828 60.9651 61.6852 61.0064 61.7706 60.9697C61.8682 60.9285 61.6867 61.0033 61.6867 61.0033C61.4336 61.1057 61.1774 61.2004 60.9182 61.286C60.3219 61.4831 59.7119 61.6282 59.0944 61.7352C58.9495 61.7596 58.8046 61.7841 58.6598 61.8055C58.611 61.8131 58.5637 61.8192 58.5149 61.8269C58.5088 61.8269 58.3883 61.8437 58.4707 61.833C58.553 61.8223 58.4325 61.8376 58.4264 61.8391C58.3777 61.8452 58.3289 61.8513 58.2801 61.8574C57.9522 61.8971 57.6228 61.9323 57.2934 61.9644C54.6309 62.2272 51.9669 62.4395 49.2907 62.4334C48.6365 62.4334 47.9823 62.4212 47.3281 62.3891C47.017 62.3738 46.706 62.354 46.3949 62.3265C46.2393 62.3127 46.0853 62.299 45.9298 62.2822C45.8459 62.273 45.7636 62.2638 45.6797 62.2531C45.6446 62.2486 45.608 62.244 45.5729 62.2394C45.5592 62.2379 45.4144 62.218 45.4967 62.2302C45.579 62.2424 45.4647 62.2256 45.4555 62.2241C45.4083 62.2165 45.361 62.2104 45.3137 62.2027C45.2436 62.192 45.1719 62.1813 45.1017 62.1691C44.9371 62.1416 44.7724 62.1126 44.6077 62.079C44.292 62.0163 43.9779 61.943 43.6668 61.8589C43.3557 61.7749 43.0736 61.6848 42.7823 61.5824C42.6375 61.532 42.4941 61.4785 42.3508 61.422C42.2852 61.396 42.2197 61.37 42.1541 61.344C42.1099 61.3257 42.0672 61.3074 42.0229 61.2906C42.0961 61.3211 42.0626 61.3074 42.0092 61.2845C40.8518 60.7833 39.7493 60.1661 38.6468 59.5564C38.1192 59.2646 37.5946 58.9697 37.0807 58.655C36.8199 58.4946 36.5607 58.3311 36.3076 58.1584C36.1856 58.0759 36.0651 57.9919 35.9446 57.9063C35.8897 57.8666 35.8348 57.8269 35.7799 57.7872C35.7525 57.7673 35.725 57.7474 35.6976 57.7261C35.6869 57.7184 35.5756 57.6344 35.6397 57.6833C35.7113 57.7383 35.5985 57.6512 35.5832 57.639C35.5573 57.6176 35.5299 57.5962 35.5039 57.5748C35.4506 57.532 35.3987 57.4892 35.3469 57.4465C35.2249 57.3456 35.1059 57.2402 34.987 57.1348C34.6912 56.8674 34.1971 56.82 33.9089 57.1348C33.642 57.4266 33.5917 57.9293 33.9089 58.215Z" fill="black"/>
<path d="M75.0278 50.2887C73.9512 51.7157 73.0652 53.2696 72.2082 54.8341C71.3512 56.3986 70.4896 57.9846 69.535 59.5063C67.6258 62.5468 65.4482 65.4085 63.1837 68.1907C61.9013 69.766 60.5914 71.3168 59.2815 72.8675C59.1488 73.0249 59.1275 73.2541 59.2815 73.4084C59.4172 73.5444 59.6871 73.5673 59.8213 73.4084C62.1742 70.6231 64.5272 67.8347 66.717 64.918C67.7997 63.4757 68.8412 62.0029 69.8186 60.4857C70.7931 58.9731 71.676 57.4116 72.536 55.8318C73.4998 54.061 74.4742 52.2871 75.6896 50.6752C75.8131 50.5102 75.7155 50.2474 75.5523 50.1527C75.3571 50.0381 75.1558 50.1252 75.0308 50.2902L75.0278 50.2887Z" fill="black"/>
<path d="M34.2605 57.2193C35.0276 58.4904 36.4137 59.3094 37.8929 59.3781C38.0987 59.3873 38.2741 59.1963 38.2741 58.9962C38.2741 58.7807 38.0987 58.6234 37.8929 58.6142C36.6912 58.5577 35.5445 57.8717 34.9193 56.8342C34.6662 56.4141 34.0059 56.7976 34.2605 57.2193Z" fill="black"/>
<path d="M13.8977 28.5983C15.6758 31.1865 17.6323 33.651 19.7534 35.9642C20.3527 36.6181 20.9673 37.2598 21.5925 37.8893C21.9386 38.2377 22.4784 37.6983 22.1323 37.3484C19.9578 35.1605 17.9327 32.8214 16.086 30.3493C15.5614 29.6465 15.0521 28.9345 14.5565 28.2118C14.4406 28.0422 14.2226 27.9658 14.035 28.0743C13.8673 28.1721 13.7803 28.4257 13.8977 28.5968V28.5983Z" fill="black"/>
<path d="M34.7827 3.99066C37.0305 3.92496 39.2812 4.01663 41.5168 4.2672C41.7211 4.29012 41.898 4.07469 41.898 3.88523C41.898 3.65911 41.7226 3.52619 41.5168 3.50327C39.2812 3.2527 37.0305 3.1595 34.7827 3.22672C34.2932 3.24047 34.2917 4.00441 34.7827 3.99066Z" fill="black"/>
<path d="M80.7181 30.267C80.7609 31.4205 80.7197 32.5756 80.59 33.723C80.5747 33.856 80.5595 33.9889 80.5412 34.1203C80.561 33.9645 80.5336 34.1738 80.529 34.2059C80.5183 34.2777 80.5076 34.3495 80.4969 34.4228C80.4527 34.7116 80.4024 34.9988 80.3474 35.2845C80.2376 35.8575 80.1033 36.4243 79.9508 36.9866C79.8455 37.3716 80.082 37.8345 80.4832 37.9262C80.8844 38.0179 81.3085 37.8055 81.4214 37.393C82.0515 35.0798 82.3337 32.6642 82.2437 30.267C82.2284 29.8682 81.9035 29.4847 81.4809 29.5031C81.0797 29.5214 80.7029 29.8392 80.7181 30.267Z" fill="black"/>
<path d="M30.1345 54.2852L32.4509 57.6221C33.1462 58.6244 33.808 59.784 34.909 60.3937C35.2582 60.5877 35.7569 60.4899 35.9521 60.1202C36.1473 59.7504 36.0512 59.2814 35.6791 59.0751C35.5541 59.0064 35.4336 58.93 35.3208 58.8429C35.426 58.9223 35.336 58.852 35.2872 58.8077C35.2415 58.768 35.1972 58.7252 35.153 58.684C35.0569 58.5908 34.967 58.493 34.8801 58.3922C34.8328 58.3372 34.787 58.2821 34.7413 58.2256C34.7169 58.1951 34.6056 58.0453 34.7077 58.1844C34.3555 57.7061 34.0215 57.2126 33.683 56.7252L31.4536 53.5137C31.2264 53.1867 30.775 53.0034 30.4105 53.2402C30.0857 53.4495 29.8936 53.9338 30.1376 54.2852H30.1345Z" fill="black"/>
<path d="M2.92968 6.05335C2.92968 6.0121 2.92968 5.97084 2.93425 5.92959L2.9068 6.1328C2.91748 6.05029 2.93883 5.9739 2.96932 5.89751L2.89308 6.07932C2.9312 5.99223 2.97847 5.91279 3.0349 5.83792L2.91595 5.99223C2.99525 5.88987 3.08674 5.80125 3.18739 5.72027L3.03337 5.83945C3.30023 5.63319 3.60674 5.49415 3.8858 5.30928C4.2228 5.08468 4.55829 4.79744 4.72755 4.41853C4.81447 4.22602 4.86327 4.04267 4.8038 3.8303C4.755 3.65307 4.61776 3.46056 4.45307 3.37347C4.27618 3.28027 4.06116 3.2329 3.86597 3.29707C3.68908 3.35513 3.48932 3.46972 3.41002 3.64848C3.37038 3.7371 3.32158 3.81655 3.26211 3.89294L3.38105 3.73863C3.30023 3.83947 3.20569 3.92656 3.10504 4.006L3.25906 3.88683C3.10047 4.00753 2.92968 4.10684 2.75736 4.20463C2.52405 4.33755 2.30446 4.48117 2.09402 4.65229C1.6823 4.9869 1.39104 5.51554 1.40476 6.05488C1.40934 6.2535 1.48558 6.45212 1.6274 6.59574C1.76007 6.72867 1.97661 6.82798 2.16722 6.81881C2.57132 6.80048 2.94035 6.48268 2.92968 6.05488V6.05335Z" fill="black"/>
<path d="M91.8694 2.86971C91.9685 2.84221 92.0707 2.82388 92.1714 2.80096C92.0539 2.80554 92.2873 2.77498 92.1714 2.80096C92.2171 2.79943 92.2629 2.79332 92.3086 2.79026C92.516 2.77804 92.7234 2.78568 92.9292 2.80707C92.9689 2.81165 93.1199 2.83457 92.9674 2.81013C93.0131 2.81776 93.0589 2.82388 93.1046 2.83304C93.1961 2.84832 93.2861 2.86666 93.376 2.88652C93.585 2.93235 93.7908 2.98736 93.9967 3.04389C94.3977 3.15542 94.7973 3.27765 95.2044 3.36933C95.6116 3.461 96.0111 3.49919 96.4045 3.60462C96.4914 3.62754 96.5784 3.65351 96.6622 3.68407C96.7004 3.69782 96.7385 3.7131 96.7766 3.72837C96.6287 3.66879 96.7324 3.71004 96.7629 3.72532C96.926 3.81088 97.0846 3.89797 97.2371 4.00339C97.2371 4.00339 97.4018 4.12104 97.3088 4.05228C97.2295 3.99422 97.3347 4.07367 97.353 4.08742C97.4171 4.13937 97.4796 4.19438 97.5406 4.24938C97.687 4.3823 97.8257 4.52287 97.9584 4.66801C98.0713 4.79024 98.178 4.91553 98.2847 5.04387C98.3396 5.10957 98.393 5.1768 98.4449 5.24402C98.4632 5.26694 98.5348 5.35708 98.4449 5.24402C98.4845 5.29597 98.5242 5.34792 98.5623 5.40139C98.788 5.71002 98.9953 6.0324 99.1738 6.37006C99.2241 6.46632 99.2729 6.56257 99.3186 6.66188C99.3369 6.70161 99.3537 6.74133 99.372 6.77953C99.4117 6.86204 99.3308 6.66952 99.3827 6.8055C99.4574 7.00566 99.5276 7.20733 99.5794 7.4136C99.6053 7.51596 99.6251 7.61986 99.645 7.72375C99.6526 7.76042 99.6831 7.86585 99.645 7.70848C99.6587 7.76653 99.6587 7.83834 99.6633 7.89793C99.6785 8.1103 99.6739 8.32421 99.6526 8.53658C99.6129 8.93535 100.031 9.31732 100.415 9.30052C100.862 9.28065 101.136 8.96438 101.178 8.53658C101.351 6.7612 100.348 5.11568 99.2424 3.82157C98.6721 3.1539 98.0026 2.584 97.1822 2.25398C96.7766 2.0905 96.3466 2.0355 95.9211 1.95757C95.4957 1.87965 95.0657 1.75742 94.6432 1.63825C93.6094 1.34337 92.5282 1.10197 91.4638 1.39532C91.0795 1.50074 90.805 1.9423 90.9316 2.33496C91.0582 2.72762 91.4577 2.98277 91.8694 2.86818V2.86971Z" fill="black"/>
<path d="M67.8419 62.2848C68.3405 61.9823 68.6745 61.5087 68.9215 60.9907C69.1396 60.5354 69.3485 60.0878 69.6275 59.663C70.2314 58.7463 70.9405 57.9106 71.2592 56.838C71.3736 56.4545 71.1219 55.9885 70.727 55.8983C70.332 55.8082 69.9112 56.0221 69.7892 56.4316C69.7571 56.5385 69.7297 56.6806 69.6718 56.7753C69.7648 56.6256 69.6718 56.7738 69.6535 56.8151C69.6275 56.8701 69.6016 56.9235 69.5742 56.977C69.4644 57.1925 69.3378 57.4002 69.2051 57.6034C68.9306 58.0236 68.6257 58.4224 68.3466 58.8395C68.0675 59.2566 67.8693 59.6554 67.668 60.0893C67.5735 60.294 67.4759 60.4972 67.3524 60.6852C67.3386 60.705 67.2273 60.8532 67.3005 60.7631C67.3737 60.6729 67.2532 60.8135 67.238 60.8303C67.1999 60.87 67.1587 60.9036 67.1206 60.9418C67.0779 60.9785 67.0931 60.9663 67.1678 60.9052C67.1373 60.9266 67.1068 60.9464 67.0748 60.9648C66.7332 61.171 66.5762 61.6599 66.8019 62.0098C67.0276 62.3597 67.4805 62.5049 67.8449 62.2833L67.8419 62.2848Z" fill="black"/>
<path d="M69.5948 57.3633C71.141 55.3465 72.5821 53.2487 73.9072 51.0792C75.2324 48.9096 76.5057 46.575 77.7043 44.2725C78.3188 43.093 78.8297 41.8844 79.0035 40.5583C79.0859 39.9242 79.0996 39.2855 79.1469 38.6484C79.1591 38.4926 79.1712 38.3367 79.1895 38.1809C79.1941 38.1366 79.22 37.9685 79.1987 38.0984C79.2124 38.0159 79.2246 37.9318 79.2399 37.8493C79.2948 37.5453 79.3756 37.2474 79.4732 36.954C79.5159 36.8257 79.5616 36.6989 79.6104 36.5736C79.6394 36.5002 79.6684 36.4269 79.6973 36.3536C79.7141 36.3123 79.7934 36.1259 79.737 36.2558C79.859 35.9762 79.9825 35.6966 80.1045 35.417C80.3576 34.8349 80.6031 34.2466 80.7617 33.6309C81.0576 32.4804 81.1094 31.278 81.0591 30.0969C81.0103 28.9358 80.8715 27.7822 80.7983 26.6226C80.7617 26.0496 80.7419 25.4736 80.7602 24.8991C80.7678 24.621 80.7861 24.3414 80.8136 24.0649C80.8197 24.0007 80.8288 23.9381 80.8349 23.8739C80.8471 23.7578 80.8151 24.0023 80.8334 23.8861C80.838 23.8541 80.8426 23.822 80.8471 23.7914C80.87 23.6432 80.8959 23.4965 80.9264 23.3499C80.9828 23.0764 81.0545 22.8059 81.1384 22.5401C81.2589 22.1596 80.9966 21.6891 80.6062 21.6004C80.1899 21.5057 79.7965 21.7257 79.6684 22.1337C78.9547 24.3934 79.2978 26.7708 79.4732 29.0824C79.5174 29.6584 79.5509 30.2344 79.5525 30.812C79.5525 31.0916 79.5464 31.3727 79.5311 31.6523C79.5235 31.7913 79.5128 31.9304 79.4991 32.0694C79.493 32.1336 79.4869 32.1978 79.4793 32.2604C79.4762 32.291 79.4747 32.3261 79.4671 32.3567C79.5083 32.1947 79.4701 32.3353 79.464 32.3765C79.3786 32.9479 79.2353 33.5056 79.0325 34.0465C78.9852 34.1733 78.9349 34.2986 78.883 34.4239C78.88 34.433 78.8358 34.5369 78.8693 34.4575C78.9029 34.378 78.8586 34.4819 78.8556 34.4911C78.8205 34.5736 78.7839 34.6576 78.7473 34.7401C78.6299 35.009 78.5094 35.2764 78.3951 35.5468C78.1435 36.1397 77.9056 36.7386 77.7821 37.3726C77.6524 38.0434 77.6143 38.7248 77.5762 39.4062C77.5579 39.7195 77.5396 40.0311 77.5045 40.3428C77.4999 40.378 77.4954 40.4146 77.4923 40.4498C77.4801 40.5735 77.5121 40.3382 77.4908 40.4605C77.4786 40.5323 77.4679 40.6026 77.4557 40.6744C77.4267 40.8348 77.3917 40.9922 77.352 41.1495C77.2773 41.4398 77.1858 41.7255 77.0806 42.0067C77.0562 42.0708 77.0318 42.1365 77.0059 42.2007C76.9891 42.2435 76.9708 42.2863 76.954 42.3291C76.9205 42.4116 76.9586 42.3184 76.9632 42.3061C76.9022 42.4436 76.8412 42.5827 76.7771 42.7187C76.2343 43.8722 75.5984 44.9875 74.9884 46.1075C74.3617 47.261 73.7243 48.4069 73.0548 49.5345C71.7632 51.7102 70.3572 53.8171 68.843 55.8446C68.657 56.0936 68.4679 56.3427 68.2788 56.5902C68.0348 56.908 68.2193 57.4595 68.5517 57.6353C68.9558 57.8492 69.334 57.701 69.5948 57.3618V57.3633Z" fill="black"/>
<path d="M45.4245 49.7346C45.4824 49.869 45.5404 50.0035 45.5968 50.1379C45.6258 50.2052 45.6532 50.2724 45.6822 50.3396C45.6212 50.196 45.7157 50.4175 45.7188 50.4267C45.8408 50.7185 45.9613 51.0119 46.0802 51.3052C46.2998 51.8476 46.5133 52.3915 46.7222 52.937C47.1476 54.0523 47.5487 55.1768 47.9253 56.309C48.302 57.4411 48.6527 58.5825 48.9836 59.7299C49.0645 60.0126 49.1544 60.2983 49.2978 60.5565C49.4655 60.859 49.7064 61.0882 49.9886 61.2807C50.4811 61.6168 51.0926 61.8307 51.6416 62.0507C52.8401 62.532 54.089 62.8788 55.3624 63.0912C55.7543 63.1569 56.2026 62.9888 56.3002 62.558C56.384 62.1898 56.1889 61.6886 55.768 61.6183C54.6563 61.4319 53.5645 61.1447 52.5062 60.7551C52.3735 60.7062 52.2424 60.6558 52.1112 60.6038C52.0457 60.5779 51.9801 60.5519 51.916 60.5244C51.9023 60.5198 51.6888 60.4281 51.8383 60.4923C51.5851 60.3838 51.332 60.2708 51.0834 60.147C50.9706 60.0905 50.8639 60.0278 50.7571 59.9606C50.6016 59.8659 50.8349 60.0645 50.7175 59.9255C50.6915 59.8949 50.6595 59.8659 50.6321 59.8353C50.7464 59.9637 50.6305 59.817 50.6122 59.7849C50.597 59.7559 50.5223 59.571 50.5848 59.7421C50.5329 59.6046 50.4918 59.464 50.4521 59.3235C49.8117 57.0989 49.0873 54.9003 48.2685 52.7353C47.7881 51.4657 47.2757 50.2097 46.739 48.963C46.5804 48.5948 46.0131 48.4832 45.6959 48.6895C45.3147 48.9355 45.2522 49.3404 45.423 49.7346H45.4245Z" fill="black"/>
<path d="M46.051 62.9424C47.0041 62.9577 47.9419 62.7286 48.8553 62.478C49.694 62.2473 50.5327 62.0486 51.3958 61.9325L51.0924 61.9738C54.5692 61.5185 58.0978 62.0089 61.5624 61.3978C63.1804 61.1121 64.7343 60.5254 66.1616 59.7156C67.5889 58.9058 68.8043 57.9463 69.983 56.889C71.2716 55.734 72.461 54.475 73.6413 53.2114C74.05 52.7745 74.1064 52.0197 73.6413 51.5904C73.1762 51.161 72.461 51.1229 72.0233 51.5904C71.0215 52.6629 70.0135 53.7309 68.943 54.7363C68.4108 55.2374 67.8619 55.7217 67.2931 56.1816C67.2199 56.2397 67.1467 56.2977 67.0735 56.3558C67.0369 56.3848 66.921 56.4735 67.0658 56.3619C67.229 56.2366 67.0613 56.365 67.0338 56.3864C66.8859 56.4994 66.7365 56.6094 66.5855 56.7194C66.3019 56.9242 66.0121 57.1213 65.7163 57.3092C65.024 57.7492 64.3012 58.1388 63.5463 58.4612L63.8193 58.3451C62.6924 58.8218 61.5106 59.1228 60.2998 59.2893L60.6033 59.2481C56.9541 59.7355 53.241 59.1625 49.6147 59.9219C48.5991 60.1342 47.6171 60.4979 46.5862 60.643L46.8897 60.6018C46.6091 60.6384 46.3301 60.6568 46.048 60.6522C45.4502 60.643 44.8768 61.1854 44.9043 61.7981C44.9317 62.4108 45.406 62.9333 46.048 62.944L46.051 62.9424Z" fill="black"/>
</g>
<defs>
<clipPath id="clip0_707_1548">
<rect width="102" height="81" fill="white"/>
</clipPath>
</defs>
</svg>
