<svg width="323" height="320" viewBox="0 0 323 320" fill="none" xmlns="http://www.w3.org/2000/svg">
<path d="M25.9629 25.0835H34.1773V33.2603H25.9629V25.0835ZM34.1773 25.0835H42.3917V33.2603H34.1773V25.0835ZM42.3917 25.0835H50.6061V33.2603H42.3917V25.0835ZM50.6061 25.0835H58.8205V33.2603H50.6061V25.0835ZM58.8205 25.0835H67.035V33.2603H58.8205V25.0835ZM67.035 25.0835H75.2494V33.2603H67.035V25.0835ZM75.2494 25.0835H83.4638V33.2603H75.2494V25.0835ZM124.536 25.0835H132.75V33.2603H124.536V25.0835ZM140.965 25.0835H149.179V33.2603H140.965V25.0835ZM149.179 25.0835H157.394V33.2603H149.179V25.0835ZM173.822 25.0835H182.037V33.2603H173.822V25.0835ZM182.037 25.0835H190.251V33.2603H182.037V25.0835ZM198.466 25.0835H206.68V33.2603H198.466V25.0835ZM206.68 25.0835H214.894V33.2603H206.68V25.0835ZM239.538 25.0835H247.752V33.2603H239.538V25.0835ZM247.752 25.0835H255.966V33.2603H247.752V25.0835ZM255.966 25.0835H264.181V33.2603H255.966V25.0835ZM264.181 25.0835H272.395V33.2603H264.181V25.0835ZM272.395 25.0835H280.61V33.2603H272.395V25.0835ZM280.61 25.0835H288.824V33.2603H280.61V25.0835ZM288.824 25.0835H297.039V33.2603H288.824V25.0835ZM25.9629 33.2603H34.1773V41.4371H25.9629V33.2603ZM75.2494 33.2603H83.4638V41.4371H75.2494V33.2603ZM91.6782 33.2603H99.8926V41.4371H91.6782V33.2603ZM99.8926 33.2603H108.107V41.4371H99.8926V33.2603ZM116.321 33.2603H124.536V41.4371H116.321V33.2603ZM124.536 33.2603H132.75V41.4371H124.536V33.2603ZM132.75 33.2603H140.965V41.4371H132.75V33.2603ZM140.965 33.2603H149.179V41.4371H140.965V33.2603ZM149.179 33.2603H157.394V41.4371H149.179V33.2603ZM165.608 33.2603H173.822V41.4371H165.608V33.2603ZM190.251 33.2603H198.466V41.4371H190.251V33.2603ZM206.68 33.2603H214.894V41.4371H206.68V33.2603ZM239.538 33.2603H247.752V41.4371H239.538V33.2603ZM288.824 33.2603H297.039V41.4371H288.824V33.2603ZM25.9629 41.4371H34.1773V49.6138H25.9629V41.4371ZM42.3917 41.4371H50.6061V49.6138H42.3917V41.4371ZM50.6061 41.4371H58.8205V49.6138H50.6061V41.4371ZM58.8205 41.4371H67.035V49.6138H58.8205V41.4371ZM75.2494 41.4371H83.4638V49.6138H75.2494V41.4371ZM91.6782 41.4371H99.8926V49.6138H91.6782V41.4371ZM99.8926 41.4371H108.107V49.6138H99.8926V41.4371ZM124.536 41.4371H132.75V49.6138H124.536V41.4371ZM149.179 41.4371H157.394V49.6138H149.179V41.4371ZM157.394 41.4371H165.608V49.6138H157.394V41.4371ZM173.822 41.4371H182.037V49.6138H173.822V41.4371ZM190.251 41.4371H198.466V49.6138H190.251V41.4371ZM198.466 41.4371H206.68V49.6138H198.466V41.4371ZM206.68 41.4371H214.894V49.6138H206.68V41.4371ZM214.894 41.4371H223.109V49.6138H214.894V41.4371ZM223.109 41.4371H231.323V49.6138H223.109V41.4371ZM239.538 41.4371H247.752V49.6138H239.538V41.4371ZM255.966 41.4371H264.181V49.6138H255.966V41.4371ZM264.181 41.4371H272.395V49.6138H264.181V41.4371ZM272.395 41.4371H280.61V49.6138H272.395V41.4371ZM288.824 41.4371H297.039V49.6138H288.824V41.4371ZM25.9629 49.6138H34.1773V57.7906H25.9629V49.6138ZM42.3917 49.6138H50.6061V57.7906H42.3917V49.6138ZM50.6061 49.6138H58.8205V57.7906H50.6061V49.6138ZM58.8205 49.6138H67.035V57.7906H58.8205V49.6138ZM75.2494 49.6138H83.4638V57.7906H75.2494V49.6138ZM99.8926 49.6138H108.107V57.7906H99.8926V49.6138ZM108.107 49.6138H116.321V57.7906H108.107V49.6138ZM116.321 49.6138H124.536V57.7906H116.321V49.6138ZM124.536 49.6138H132.75V57.7906H124.536V49.6138ZM140.965 49.6138H149.179V57.7906H140.965V49.6138ZM149.179 49.6138H157.394V57.7906H149.179V49.6138ZM157.394 49.6138H165.608V57.7906H157.394V49.6138ZM173.822 49.6138H182.037V57.7906H173.822V49.6138ZM182.037 49.6138H190.251V57.7906H182.037V49.6138ZM198.466 49.6138H206.68V57.7906H198.466V49.6138ZM206.68 49.6138H214.894V57.7906H206.68V49.6138ZM214.894 49.6138H223.109V57.7906H214.894V49.6138ZM239.538 49.6138H247.752V57.7906H239.538V49.6138ZM255.966 49.6138H264.181V57.7906H255.966V49.6138ZM264.181 49.6138H272.395V57.7906H264.181V49.6138ZM272.395 49.6138H280.61V57.7906H272.395V49.6138ZM288.824 49.6138H297.039V57.7906H288.824V49.6138ZM25.9629 57.7906H34.1773V65.9674H25.9629V57.7906ZM42.3917 57.7906H50.6061V65.9674H42.3917V57.7906ZM50.6061 57.7906H58.8205V65.9674H50.6061V57.7906ZM58.8205 57.7906H67.035V65.9674H58.8205V57.7906ZM75.2494 57.7906H83.4638V65.9674H75.2494V57.7906ZM99.8926 57.7906H108.107V65.9674H99.8926V57.7906ZM124.536 57.7906H132.75V65.9674H124.536V57.7906ZM140.965 57.7906H149.179V65.9674H140.965V57.7906ZM165.608 57.7906H173.822V65.9674H165.608V57.7906ZM173.822 57.7906H182.037V65.9674H173.822V57.7906ZM206.68 57.7906H214.894V65.9674H206.68V57.7906ZM214.894 57.7906H223.109V65.9674H214.894V57.7906ZM239.538 57.7906H247.752V65.9674H239.538V57.7906ZM255.966 57.7906H264.181V65.9674H255.966V57.7906ZM264.181 57.7906H272.395V65.9674H264.181V57.7906ZM272.395 57.7906H280.61V65.9674H272.395V57.7906ZM288.824 57.7906H297.039V65.9674H288.824V57.7906ZM25.9629 65.9674H34.1773V74.1442H25.9629V65.9674ZM75.2494 65.9674H83.4638V74.1442H75.2494V65.9674ZM99.8926 65.9674H108.107V74.1442H99.8926V65.9674ZM108.107 65.9674H116.321V74.1442H108.107V65.9674ZM124.536 65.9674H132.75V74.1442H124.536V65.9674ZM206.68 65.9674H214.894V74.1442H206.68V65.9674ZM214.894 65.9674H223.109V74.1442H214.894V65.9674ZM239.538 65.9674H247.752V74.1442H239.538V65.9674ZM288.824 65.9674H297.039V74.1442H288.824V65.9674ZM25.9629 74.1442H34.1773V82.321H25.9629V74.1442ZM34.1773 74.1442H42.3917V82.321H34.1773V74.1442ZM42.3917 74.1442H50.6061V82.321H42.3917V74.1442ZM50.6061 74.1442H58.8205V82.321H50.6061V74.1442ZM58.8205 74.1442H67.035V82.321H58.8205V74.1442ZM67.035 74.1442H75.2494V82.321H67.035V74.1442ZM75.2494 74.1442H83.4638V82.321H75.2494V74.1442ZM91.6782 74.1442H99.8926V82.321H91.6782V74.1442ZM108.107 74.1442H116.321V82.321H108.107V74.1442ZM124.536 74.1442H132.75V82.321H124.536V74.1442ZM140.965 74.1442H149.179V82.321H140.965V74.1442ZM157.394 74.1442H165.608V82.321H157.394V74.1442ZM173.822 74.1442H182.037V82.321H173.822V74.1442ZM190.251 74.1442H198.466V82.321H190.251V74.1442ZM206.68 74.1442H214.894V82.321H206.68V74.1442ZM223.109 74.1442H231.323V82.321H223.109V74.1442ZM239.538 74.1442H247.752V82.321H239.538V74.1442ZM247.752 74.1442H255.966V82.321H247.752V74.1442ZM255.966 74.1442H264.181V82.321H255.966V74.1442ZM264.181 74.1442H272.395V82.321H264.181V74.1442ZM272.395 74.1442H280.61V82.321H272.395V74.1442ZM280.61 74.1442H288.824V82.321H280.61V74.1442ZM288.824 74.1442H297.039V82.321H288.824V74.1442ZM116.321 82.321H124.536V90.4977H116.321V82.321ZM124.536 82.321H132.75V90.4977H124.536V82.321ZM132.75 82.321H140.965V90.4977H132.75V82.321ZM182.037 82.321H190.251V90.4977H182.037V82.321ZM198.466 82.321H206.68V90.4977H198.466V82.321ZM214.894 82.321H223.109V90.4977H214.894V82.321ZM34.1773 90.4977H42.3917V98.6745H34.1773V90.4977ZM42.3917 90.4977H50.6061V98.6745H42.3917V90.4977ZM50.6061 90.4977H58.8205V98.6745H50.6061V90.4977ZM67.035 90.4977H75.2494V98.6745H67.035V90.4977ZM75.2494 90.4977H83.4638V98.6745H75.2494V90.4977ZM108.107 90.4977H116.321V98.6745H108.107V90.4977ZM116.321 90.4977H124.536V98.6745H116.321V90.4977ZM124.536 90.4977H132.75V98.6745H124.536V90.4977ZM132.75 90.4977H140.965V98.6745H132.75V90.4977ZM149.179 90.4977H157.394V98.6745H149.179V90.4977ZM173.822 90.4977H182.037V98.6745H173.822V90.4977ZM190.251 90.4977H198.466V98.6745H190.251V90.4977ZM198.466 90.4977H206.68V98.6745H198.466V90.4977ZM206.68 90.4977H214.894V98.6745H206.68V90.4977ZM223.109 90.4977H231.323V98.6745H223.109V90.4977ZM272.395 90.4977H280.61V98.6745H272.395V90.4977ZM280.61 90.4977H288.824V98.6745H280.61V90.4977ZM25.9629 98.6745H34.1773V106.851H25.9629V98.6745ZM34.1773 98.6745H42.3917V106.851H34.1773V98.6745ZM42.3917 98.6745H50.6061V106.851H42.3917V98.6745ZM50.6061 98.6745H58.8205V106.851H50.6061V98.6745ZM58.8205 98.6745H67.035V106.851H58.8205V98.6745ZM99.8926 98.6745H108.107V106.851H99.8926V98.6745ZM132.75 98.6745H140.965V106.851H132.75V98.6745ZM149.179 98.6745H157.394V106.851H149.179V98.6745ZM165.608 98.6745H173.822V106.851H165.608V98.6745ZM198.466 98.6745H206.68V106.851H198.466V98.6745ZM223.109 98.6745H231.323V106.851H223.109V98.6745ZM239.538 98.6745H247.752V106.851H239.538V98.6745ZM247.752 98.6745H255.966V106.851H247.752V98.6745ZM255.966 98.6745H264.181V106.851H255.966V98.6745ZM280.61 98.6745H288.824V106.851H280.61V98.6745ZM34.1773 106.851H42.3917V115.028H34.1773V106.851ZM50.6061 106.851H58.8205V115.028H50.6061V106.851ZM58.8205 106.851H67.035V115.028H58.8205V106.851ZM67.035 106.851H75.2494V115.028H67.035V106.851ZM75.2494 106.851H83.4638V115.028H75.2494V106.851ZM83.4638 106.851H91.6782V115.028H83.4638V106.851ZM99.8926 106.851H108.107V115.028H99.8926V106.851ZM108.107 106.851H116.321V115.028H108.107V106.851ZM132.75 106.851H140.965V115.028H132.75V106.851ZM173.822 106.851H182.037V115.028H173.822V106.851ZM182.037 106.851H190.251V115.028H182.037V106.851ZM190.251 106.851H198.466V115.028H190.251V106.851ZM239.538 106.851H247.752V115.028H239.538V106.851ZM264.181 106.851H272.395V115.028H264.181V106.851ZM25.9629 115.028H34.1773V123.205H25.9629V115.028ZM34.1773 115.028H42.3917V123.205H34.1773V115.028ZM42.3917 115.028H50.6061V123.205H42.3917V115.028ZM58.8205 115.028H67.035V123.205H58.8205V115.028ZM124.536 115.028H132.75V123.205H124.536V115.028ZM165.608 115.028H173.822V123.205H165.608V115.028ZM182.037 115.028H190.251V123.205H182.037V115.028ZM198.466 115.028H206.68V123.205H198.466V115.028ZM206.68 115.028H214.894V123.205H206.68V115.028ZM231.323 115.028H239.538V123.205H231.323V115.028ZM255.966 115.028H264.181V123.205H255.966V115.028ZM264.181 115.028H272.395V123.205H264.181V115.028ZM272.395 115.028H280.61V123.205H272.395V115.028ZM280.61 115.028H288.824V123.205H280.61V115.028ZM42.3917 123.205H50.6061V131.382H42.3917V123.205ZM58.8205 123.205H67.035V131.382H58.8205V123.205ZM67.035 123.205H75.2494V131.382H67.035V123.205ZM75.2494 123.205H83.4638V131.382H75.2494V123.205ZM83.4638 123.205H91.6782V131.382H83.4638V123.205ZM124.536 123.205H132.75V131.382H124.536V123.205ZM140.965 123.205H149.179V131.382H140.965V123.205ZM149.179 123.205H157.394V131.382H149.179V123.205ZM157.394 123.205H165.608V131.382H157.394V123.205ZM190.251 123.205H198.466V131.382H190.251V123.205ZM198.466 123.205H206.68V131.382H198.466V123.205ZM239.538 123.205H247.752V131.382H239.538V123.205ZM264.181 123.205H272.395V131.382H264.181V123.205ZM272.395 123.205H280.61V131.382H272.395V123.205ZM25.9629 131.382H34.1773V139.558H25.9629V131.382ZM34.1773 131.382H42.3917V139.558H34.1773V131.382ZM50.6061 131.382H58.8205V139.558H50.6061V131.382ZM58.8205 131.382H67.035V139.558H58.8205V131.382ZM83.4638 131.382H91.6782V139.558H83.4638V131.382ZM91.6782 131.382H99.8926V139.558H91.6782V131.382ZM99.8926 131.382H108.107V139.558H99.8926V131.382ZM116.321 131.382H124.536V139.558H116.321V131.382ZM132.75 131.382H140.965V139.558H132.75V131.382ZM140.965 131.382H149.179V139.558H140.965V131.382ZM149.179 131.382H157.394V139.558H149.179V131.382ZM157.394 131.382H165.608V139.558H157.394V131.382ZM165.608 131.382H173.822V139.558H165.608V131.382ZM190.251 131.382H198.466V139.558H190.251V131.382ZM214.894 131.382H223.109V139.558H214.894V131.382ZM223.109 131.382H231.323V139.558H223.109V131.382ZM231.323 131.382H239.538V139.558H231.323V131.382ZM239.538 131.382H247.752V139.558H239.538V131.382ZM247.752 131.382H255.966V139.558H247.752V131.382ZM255.966 131.382H264.181V139.558H255.966V131.382ZM264.181 131.382H272.395V139.558H264.181V131.382ZM272.395 131.382H280.61V139.558H272.395V131.382ZM280.61 131.382H288.824V139.558H280.61V131.382ZM288.824 131.382H297.039V139.558H288.824V131.382ZM25.9629 139.558H34.1773V147.735H25.9629V139.558ZM34.1773 139.558H42.3917V147.735H34.1773V139.558ZM42.3917 139.558H50.6061V147.735H42.3917V139.558ZM50.6061 139.558H58.8205V147.735H50.6061V139.558ZM58.8205 139.558H67.035V147.735H58.8205V139.558ZM75.2494 139.558H83.4638V147.735H75.2494V139.558ZM83.4638 139.558H91.6782V147.735H83.4638V139.558ZM99.8926 139.558H108.107V147.735H99.8926V139.558ZM108.107 139.558H116.321V147.735H108.107V139.558ZM116.321 139.558H124.536V147.735H116.321V139.558ZM124.536 139.558H132.75V147.735H124.536V139.558ZM140.965 139.558H149.179V147.735H140.965V139.558ZM173.822 139.558H182.037V147.735H173.822V139.558ZM182.037 139.558H190.251V147.735H182.037V139.558ZM190.251 139.558H198.466V147.735H190.251V139.558ZM198.466 139.558H206.68V147.735H198.466V139.558ZM206.68 139.558H214.894V147.735H206.68V139.558ZM214.894 139.558H223.109V147.735H214.894V139.558ZM231.323 139.558H239.538V147.735H231.323V139.558ZM264.181 139.558H272.395V147.735H264.181V139.558ZM272.395 139.558H280.61V147.735H272.395V139.558ZM280.61 139.558H288.824V147.735H280.61V139.558ZM288.824 139.558H297.039V147.735H288.824V139.558ZM34.1773 147.735H42.3917V155.912H34.1773V147.735ZM58.8205 147.735H67.035V155.912H58.8205V147.735ZM67.035 147.735H75.2494V155.912H67.035V147.735ZM83.4638 147.735H91.6782V155.912H83.4638V147.735ZM99.8926 147.735H108.107V155.912H99.8926V147.735ZM108.107 147.735H116.321V155.912H108.107V147.735ZM124.536 147.735H132.75V155.912H124.536V147.735ZM132.75 147.735H140.965V155.912H132.75V147.735ZM149.179 147.735H157.394V155.912H149.179V147.735ZM165.608 147.735H173.822V155.912H165.608V147.735ZM173.822 147.735H182.037V155.912H173.822V147.735ZM198.466 147.735H206.68V155.912H198.466V147.735ZM223.109 147.735H231.323V155.912H223.109V147.735ZM239.538 147.735H247.752V155.912H239.538V147.735ZM264.181 147.735H272.395V155.912H264.181V147.735ZM25.9629 155.912H34.1773V164.089H25.9629V155.912ZM34.1773 155.912H42.3917V164.089H34.1773V155.912ZM42.3917 155.912H50.6061V164.089H42.3917V155.912ZM58.8205 155.912H67.035V164.089H58.8205V155.912ZM75.2494 155.912H83.4638V164.089H75.2494V155.912ZM99.8926 155.912H108.107V164.089H99.8926V155.912ZM108.107 155.912H116.321V164.089H108.107V155.912ZM116.321 155.912H124.536V164.089H116.321V155.912ZM140.965 155.912H149.179V164.089H140.965V155.912ZM165.608 155.912H173.822V164.089H165.608V155.912ZM198.466 155.912H206.68V164.089H198.466V155.912ZM223.109 155.912H231.323V164.089H223.109V155.912ZM239.538 155.912H247.752V164.089H239.538V155.912ZM247.752 155.912H255.966V164.089H247.752V155.912ZM288.824 155.912H297.039V164.089H288.824V155.912ZM25.9629 164.089H34.1773V172.266H25.9629V164.089ZM34.1773 164.089H42.3917V172.266H34.1773V164.089ZM50.6061 164.089H58.8205V172.266H50.6061V164.089ZM91.6782 164.089H99.8926V172.266H91.6782V164.089ZM99.8926 164.089H108.107V172.266H99.8926V164.089ZM132.75 164.089H140.965V172.266H132.75V164.089ZM140.965 164.089H149.179V172.266H140.965V164.089ZM149.179 164.089H157.394V172.266H149.179V164.089ZM165.608 164.089H173.822V172.266H165.608V164.089ZM182.037 164.089H190.251V172.266H182.037V164.089ZM190.251 164.089H198.466V172.266H190.251V164.089ZM206.68 164.089H214.894V172.266H206.68V164.089ZM223.109 164.089H231.323V172.266H223.109V164.089ZM231.323 164.089H239.538V172.266H231.323V164.089ZM239.538 164.089H247.752V172.266H239.538V164.089ZM247.752 164.089H255.966V172.266H247.752V164.089ZM25.9629 172.266H34.1773V180.442H25.9629V172.266ZM34.1773 172.266H42.3917V180.442H34.1773V172.266ZM50.6061 172.266H58.8205V180.442H50.6061V172.266ZM58.8205 172.266H67.035V180.442H58.8205V172.266ZM67.035 172.266H75.2494V180.442H67.035V172.266ZM75.2494 172.266H83.4638V180.442H75.2494V172.266ZM83.4638 172.266H91.6782V180.442H83.4638V172.266ZM91.6782 172.266H99.8926V180.442H91.6782V172.266ZM108.107 172.266H116.321V180.442H108.107V172.266ZM157.394 172.266H165.608V180.442H157.394V172.266ZM173.822 172.266H182.037V180.442H173.822V172.266ZM182.037 172.266H190.251V180.442H182.037V172.266ZM190.251 172.266H198.466V180.442H190.251V172.266ZM198.466 172.266H206.68V180.442H198.466V172.266ZM214.894 172.266H223.109V180.442H214.894V172.266ZM223.109 172.266H231.323V180.442H223.109V172.266ZM231.323 172.266H239.538V180.442H231.323V172.266ZM272.395 172.266H280.61V180.442H272.395V172.266ZM280.61 172.266H288.824V180.442H280.61V172.266ZM288.824 172.266H297.039V180.442H288.824V172.266ZM25.9629 180.442H34.1773V188.619H25.9629V180.442ZM34.1773 180.442H42.3917V188.619H34.1773V180.442ZM50.6061 180.442H58.8205V188.619H50.6061V180.442ZM67.035 180.442H75.2494V188.619H67.035V180.442ZM83.4638 180.442H91.6782V188.619H83.4638V180.442ZM91.6782 180.442H99.8926V188.619H91.6782V180.442ZM99.8926 180.442H108.107V188.619H99.8926V180.442ZM132.75 180.442H140.965V188.619H132.75V180.442ZM149.179 180.442H157.394V188.619H149.179V180.442ZM182.037 180.442H190.251V188.619H182.037V180.442ZM198.466 180.442H206.68V188.619H198.466V180.442ZM206.68 180.442H214.894V188.619H206.68V180.442ZM231.323 180.442H239.538V188.619H231.323V180.442ZM239.538 180.442H247.752V188.619H239.538V180.442ZM264.181 180.442H272.395V188.619H264.181V180.442ZM272.395 180.442H280.61V188.619H272.395V180.442ZM280.61 180.442H288.824V188.619H280.61V180.442ZM25.9629 188.619H34.1773V196.796H25.9629V188.619ZM34.1773 188.619H42.3917V196.796H34.1773V188.619ZM42.3917 188.619H50.6061V196.796H42.3917V188.619ZM67.035 188.619H75.2494V196.796H67.035V188.619ZM75.2494 188.619H83.4638V196.796H75.2494V188.619ZM91.6782 188.619H99.8926V196.796H91.6782V188.619ZM99.8926 188.619H108.107V196.796H99.8926V188.619ZM124.536 188.619H132.75V196.796H124.536V188.619ZM165.608 188.619H173.822V196.796H165.608V188.619ZM214.894 188.619H223.109V196.796H214.894V188.619ZM223.109 188.619H231.323V196.796H223.109V188.619ZM231.323 188.619H239.538V196.796H231.323V188.619ZM264.181 188.619H272.395V196.796H264.181V188.619ZM280.61 188.619H288.824V196.796H280.61V188.619ZM25.9629 196.796H34.1773V204.973H25.9629V196.796ZM34.1773 196.796H42.3917V204.973H34.1773V196.796ZM83.4638 196.796H91.6782V204.973H83.4638V196.796ZM108.107 196.796H116.321V204.973H108.107V196.796ZM116.321 196.796H124.536V204.973H116.321V196.796ZM140.965 196.796H149.179V204.973H140.965V196.796ZM149.179 196.796H157.394V204.973H149.179V196.796ZM173.822 196.796H182.037V204.973H173.822V196.796ZM190.251 196.796H198.466V204.973H190.251V196.796ZM198.466 196.796H206.68V204.973H198.466V196.796ZM206.68 196.796H214.894V204.973H206.68V196.796ZM223.109 196.796H231.323V204.973H223.109V196.796ZM239.538 196.796H247.752V204.973H239.538V196.796ZM247.752 196.796H255.966V204.973H247.752V196.796ZM255.966 196.796H264.181V204.973H255.966V196.796ZM272.395 196.796H280.61V204.973H272.395V196.796ZM280.61 196.796H288.824V204.973H280.61V196.796ZM58.8205 204.973H67.035V213.149H58.8205V204.973ZM75.2494 204.973H83.4638V213.149H75.2494V204.973ZM108.107 204.973H116.321V213.149H108.107V204.973ZM124.536 204.973H132.75V213.149H124.536V204.973ZM132.75 204.973H140.965V213.149H132.75V204.973ZM173.822 204.973H182.037V213.149H173.822V204.973ZM182.037 204.973H190.251V213.149H182.037V204.973ZM190.251 204.973H198.466V213.149H190.251V204.973ZM239.538 204.973H247.752V213.149H239.538V204.973ZM264.181 204.973H272.395V213.149H264.181V204.973ZM280.61 204.973H288.824V213.149H280.61V204.973ZM34.1773 213.149H42.3917V221.326H34.1773V213.149ZM42.3917 213.149H50.6061V221.326H42.3917V213.149ZM58.8205 213.149H67.035V221.326H58.8205V213.149ZM67.035 213.149H75.2494V221.326H67.035V213.149ZM91.6782 213.149H99.8926V221.326H91.6782V213.149ZM99.8926 213.149H108.107V221.326H99.8926V213.149ZM108.107 213.149H116.321V221.326H108.107V213.149ZM132.75 213.149H140.965V221.326H132.75V213.149ZM157.394 213.149H165.608V221.326H157.394V213.149ZM165.608 213.149H173.822V221.326H165.608V213.149ZM190.251 213.149H198.466V221.326H190.251V213.149ZM231.323 213.149H239.538V221.326H231.323V213.149ZM255.966 213.149H264.181V221.326H255.966V213.149ZM272.395 213.149H280.61V221.326H272.395V213.149ZM25.9629 221.326H34.1773V229.503H25.9629V221.326ZM58.8205 221.326H67.035V229.503H58.8205V221.326ZM75.2494 221.326H83.4638V229.503H75.2494V221.326ZM91.6782 221.326H99.8926V229.503H91.6782V221.326ZM99.8926 221.326H108.107V229.503H99.8926V221.326ZM108.107 221.326H116.321V229.503H108.107V221.326ZM116.321 221.326H124.536V229.503H116.321V221.326ZM132.75 221.326H140.965V229.503H132.75V221.326ZM149.179 221.326H157.394V229.503H149.179V221.326ZM157.394 221.326H165.608V229.503H157.394V221.326ZM173.822 221.326H182.037V229.503H173.822V221.326ZM182.037 221.326H190.251V229.503H182.037V221.326ZM190.251 221.326H198.466V229.503H190.251V221.326ZM223.109 221.326H231.323V229.503H223.109V221.326ZM231.323 221.326H239.538V229.503H231.323V221.326ZM239.538 221.326H247.752V229.503H239.538V221.326ZM247.752 221.326H255.966V229.503H247.752V221.326ZM255.966 221.326H264.181V229.503H255.966V221.326ZM264.181 221.326H272.395V229.503H264.181V221.326ZM272.395 221.326H280.61V229.503H272.395V221.326ZM288.824 221.326H297.039V229.503H288.824V221.326ZM91.6782 229.503H99.8926V237.68H91.6782V229.503ZM140.965 229.503H149.179V237.68H140.965V229.503ZM190.251 229.503H198.466V237.68H190.251V229.503ZM223.109 229.503H231.323V237.68H223.109V229.503ZM255.966 229.503H264.181V237.68H255.966V229.503ZM25.9629 237.68H34.1773V245.857H25.9629V237.68ZM34.1773 237.68H42.3917V245.857H34.1773V237.68ZM42.3917 237.68H50.6061V245.857H42.3917V237.68ZM50.6061 237.68H58.8205V245.857H50.6061V237.68ZM58.8205 237.68H67.035V245.857H58.8205V237.68ZM67.035 237.68H75.2494V245.857H67.035V237.68ZM75.2494 237.68H83.4638V245.857H75.2494V237.68ZM108.107 237.68H116.321V245.857H108.107V237.68ZM116.321 237.68H124.536V245.857H116.321V237.68ZM132.75 237.68H140.965V245.857H132.75V237.68ZM140.965 237.68H149.179V245.857H140.965V237.68ZM149.179 237.68H157.394V245.857H149.179V237.68ZM165.608 237.68H173.822V245.857H165.608V237.68ZM173.822 237.68H182.037V245.857H173.822V237.68ZM206.68 237.68H214.894V245.857H206.68V237.68ZM223.109 237.68H231.323V245.857H223.109V237.68ZM239.538 237.68H247.752V245.857H239.538V237.68ZM255.966 237.68H264.181V245.857H255.966V237.68ZM280.61 237.68H288.824V245.857H280.61V237.68ZM288.824 237.68H297.039V245.857H288.824V237.68ZM25.9629 245.857H34.1773V254.033H25.9629V245.857ZM75.2494 245.857H83.4638V254.033H75.2494V245.857ZM91.6782 245.857H99.8926V254.033H91.6782V245.857ZM99.8926 245.857H108.107V254.033H99.8926V245.857ZM108.107 245.857H116.321V254.033H108.107V245.857ZM116.321 245.857H124.536V254.033H116.321V245.857ZM149.179 245.857H157.394V254.033H149.179V245.857ZM165.608 245.857H173.822V254.033H165.608V245.857ZM173.822 245.857H182.037V254.033H173.822V245.857ZM223.109 245.857H231.323V254.033H223.109V245.857ZM255.966 245.857H264.181V254.033H255.966V245.857ZM264.181 245.857H272.395V254.033H264.181V245.857ZM25.9629 254.033H34.1773V262.21H25.9629V254.033ZM42.3917 254.033H50.6061V262.21H42.3917V254.033ZM50.6061 254.033H58.8205V262.21H50.6061V254.033ZM58.8205 254.033H67.035V262.21H58.8205V254.033ZM75.2494 254.033H83.4638V262.21H75.2494V254.033ZM99.8926 254.033H108.107V262.21H99.8926V254.033ZM108.107 254.033H116.321V262.21H108.107V254.033ZM124.536 254.033H132.75V262.21H124.536V254.033ZM190.251 254.033H198.466V262.21H190.251V254.033ZM198.466 254.033H206.68V262.21H198.466V254.033ZM223.109 254.033H231.323V262.21H223.109V254.033ZM231.323 254.033H239.538V262.21H231.323V254.033ZM239.538 254.033H247.752V262.21H239.538V254.033ZM247.752 254.033H255.966V262.21H247.752V254.033ZM255.966 254.033H264.181V262.21H255.966V254.033ZM288.824 254.033H297.039V262.21H288.824V254.033ZM25.9629 262.21H34.1773V270.387H25.9629V262.21ZM42.3917 262.21H50.6061V270.387H42.3917V262.21ZM50.6061 262.21H58.8205V270.387H50.6061V262.21ZM58.8205 262.21H67.035V270.387H58.8205V262.21ZM75.2494 262.21H83.4638V270.387H75.2494V262.21ZM91.6782 262.21H99.8926V270.387H91.6782V262.21ZM116.321 262.21H124.536V270.387H116.321V262.21ZM124.536 262.21H132.75V270.387H124.536V262.21ZM140.965 262.21H149.179V270.387H140.965V262.21ZM149.179 262.21H157.394V270.387H149.179V262.21ZM165.608 262.21H173.822V270.387H165.608V262.21ZM173.822 262.21H182.037V270.387H173.822V262.21ZM182.037 262.21H190.251V270.387H182.037V262.21ZM206.68 262.21H214.894V270.387H206.68V262.21ZM239.538 262.21H247.752V270.387H239.538V262.21ZM255.966 262.21H264.181V270.387H255.966V262.21ZM272.395 262.21H280.61V270.387H272.395V262.21ZM280.61 262.21H288.824V270.387H280.61V262.21ZM288.824 262.21H297.039V270.387H288.824V262.21ZM25.9629 270.387H34.1773V278.564H25.9629V270.387ZM42.3917 270.387H50.6061V278.564H42.3917V270.387ZM50.6061 270.387H58.8205V278.564H50.6061V270.387ZM58.8205 270.387H67.035V278.564H58.8205V270.387ZM75.2494 270.387H83.4638V278.564H75.2494V270.387ZM91.6782 270.387H99.8926V278.564H91.6782V270.387ZM99.8926 270.387H108.107V278.564H99.8926V270.387ZM124.536 270.387H132.75V278.564H124.536V270.387ZM132.75 270.387H140.965V278.564H132.75V270.387ZM140.965 270.387H149.179V278.564H140.965V270.387ZM165.608 270.387H173.822V278.564H165.608V270.387ZM198.466 270.387H206.68V278.564H198.466V270.387ZM223.109 270.387H231.323V278.564H223.109V270.387ZM231.323 270.387H239.538V278.564H231.323V270.387ZM247.752 270.387H255.966V278.564H247.752V270.387ZM255.966 270.387H264.181V278.564H255.966V270.387ZM272.395 270.387H280.61V278.564H272.395V270.387ZM25.9629 278.564H34.1773V286.74H25.9629V278.564ZM75.2494 278.564H83.4638V286.74H75.2494V278.564ZM91.6782 278.564H99.8926V286.74H91.6782V278.564ZM108.107 278.564H116.321V286.74H108.107V278.564ZM116.321 278.564H124.536V286.74H116.321V278.564ZM124.536 278.564H132.75V286.74H124.536V278.564ZM140.965 278.564H149.179V286.74H140.965V278.564ZM165.608 278.564H173.822V286.74H165.608V278.564ZM173.822 278.564H182.037V286.74H173.822V278.564ZM182.037 278.564H190.251V286.74H182.037V278.564ZM190.251 278.564H198.466V286.74H190.251V278.564ZM198.466 278.564H206.68V286.74H198.466V278.564ZM239.538 278.564H247.752V286.74H239.538V278.564ZM272.395 278.564H280.61V286.74H272.395V278.564ZM288.824 278.564H297.039V286.74H288.824V278.564ZM25.9629 286.74H34.1773V294.917H25.9629V286.74ZM34.1773 286.74H42.3917V294.917H34.1773V286.74ZM42.3917 286.74H50.6061V294.917H42.3917V286.74ZM50.6061 286.74H58.8205V294.917H50.6061V286.74ZM58.8205 286.74H67.035V294.917H58.8205V286.74ZM67.035 286.74H75.2494V294.917H67.035V286.74ZM75.2494 286.74H83.4638V294.917H75.2494V286.74ZM116.321 286.74H124.536V294.917H116.321V286.74ZM124.536 286.74H132.75V294.917H124.536V286.74ZM157.394 286.74H165.608V294.917H157.394V286.74ZM165.608 286.74H173.822V294.917H165.608V286.74ZM173.822 286.74H182.037V294.917H173.822V286.74ZM182.037 286.74H190.251V294.917H182.037V286.74ZM190.251 286.74H198.466V294.917H190.251V286.74ZM214.894 286.74H223.109V294.917H214.894V286.74ZM223.109 286.74H231.323V294.917H223.109V286.74ZM231.323 286.74H239.538V294.917H231.323V286.74ZM255.966 286.74H264.181V294.917H255.966V286.74ZM264.181 286.74H272.395V294.917H264.181V286.74Z" fill="#BEFF00"/>
<rect x="2.5" y="2.5" width="318" height="315" rx="43.5" stroke="#BEFF00" stroke-width="5"/>
</svg>
