<svg width="34" height="44" viewBox="0 0 34 44" fill="none" xmlns="http://www.w3.org/2000/svg">
<path d="M5.95089 16.7963L16.6668 29.3631C16.842 29.5686 17.1593 29.5686 17.3345 29.3631L28.0504 16.7963C28.2933 16.5114 28.0909 16.0728 27.7165 16.0728H22.0228C21.7804 16.0728 21.584 15.8763 21.584 15.634V2.43877C21.584 2.19645 21.3875 2 21.1452 2H12.8561C12.6138 2 12.4173 2.19645 12.4173 2.43877V15.634C12.4173 15.8763 12.2209 16.0728 11.9785 16.0728H6.28477C5.91043 16.0728 5.70801 16.5114 5.95089 16.7963Z" fill="#81886E" stroke="#81886E" stroke-width="2.19387"/>
<path d="M2 34.6531V41.5611C2 41.8035 2.19645 41.9999 2.43877 41.9999H31.5612C31.8036 41.9999 32 41.8035 32 41.5611V34.6531" stroke="#81886E" stroke-width="2.19387"/>
</svg>
