<svg width="33" height="33" viewBox="0 0 33 33" fill="none" xmlns="http://www.w3.org/2000/svg">
<circle cx="16.5" cy="16.5" r="15.75" transform="rotate(-180 16.5 16.5)" stroke="#BEFF00" stroke-width="1.5"/>
<path d="M17.8277 20.8042C17.5091 21.1676 17.5091 21.7567 17.8277 22.1201C18.1464 22.4834 18.663 22.4834 18.9816 22.1201L23.3333 17.1576C23.4926 16.976 23.5723 16.7378 23.5723 16.4997C23.5723 16.3736 23.5502 16.2533 23.5104 16.1436C23.4705 16.0338 23.4115 15.931 23.3333 15.8418L18.9816 10.8794C18.663 10.516 18.1464 10.516 17.8277 10.8794C17.5091 11.2428 17.5091 11.8319 17.8277 12.1952L20.7865 15.5693L10.2453 15.5693C9.79472 15.5693 9.42941 15.9858 9.42941 16.4997C9.42941 17.0136 9.79472 17.4302 10.2453 17.4302L20.7865 17.4302L17.8277 20.8042Z" fill="#BEFF00"/>
</svg>
